STARTFONT 2.1
COMMENT
COMMENT Converted from OpenType font "Q:\font stuff\winfont\Saved By Zero.ttf" by "otf2bdf 3.0".
COMMENT
FONT -FreeType-Saved By Zero-Medium-R-Normal--50-500-72-72-P-99-ISO10646-1
SIZE 50 72 72
FONTBOUNDINGBOX 52 51 -3 -11
STARTPROPERTIES 19
FOUNDRY "FreeType"
FAMILY_NAME "Saved By Zero"
WEIGHT_NAME "Medium"
SLANT "R"
SETWIDTH_NAME "Normal"
ADD_STYLE_NAME ""
PIXEL_SIZE 50
POINT_SIZE 500
RESOLUTION_X 72
RESOLUTION_Y 72
SPACING "P"
AVERAGE_WIDTH 99
CHARSET_REGISTRY "ISO10646"
CHARSET_ENCODING "1"
FONT_ASCENT 40
FONT_DESCENT 10
COPYRIGHT "© 1998 Ray Larabie-www.larabiefonts.com"
_OTF_FONTFILE "Q:\font stuff\winfont\Saved By Zero.ttf"
_OTF_PSNAME "SavedByZero"
ENDPROPERTIES
CHARS 530
STARTCHAR 0020
ENCODING 32
SWIDTH 340 0
DWIDTH 17 0
BBX 0 0 0 0
BITMAP
ENDCHAR
STARTCHAR 0021
ENCODING 33
SWIDTH 180 0
DWIDTH 9 0
BBX 6 29 2 0
BITMAP
FC
FC
FC
FC
FC
FC
FC
FC
FC
FC
FC
FC
FC
FC
FC
FC
FC
FC
FC
FC
FC
FC
00
00
78
FC
FC
FC
78
ENDCHAR
STARTCHAR 0022
ENCODING 34
SWIDTH 360 0
DWIDTH 18 0
BBX 14 9 2 20
BITMAP
7878
FCFC
FCFC
FCFC
FCFC
FCFC
FCFC
FCFC
FCFC
ENDCHAR
STARTCHAR 0023
ENCODING 35
SWIDTH 520 0
DWIDTH 26 0
BBX 22 22 2 4
BITMAP
1F87E0
1F87E0
1F87E0
1F87E0
FFFFFC
FFFFFC
FFFFFC
FFFFFC
FFFFFC
1F87E0
1F87E0
1F87E0
1F87E0
1F87E0
FFFFFC
FFFFFC
FFFFFC
FFFFFC
FFFFFC
1F87E0
1F87E0
1F87E0
ENDCHAR
STARTCHAR 0024
ENCODING 36
SWIDTH 600 0
DWIDTH 30 0
BBX 27 33 2 -2
BITMAP
003F0000
003F0000
07FF0000
1FFF0000
3FFF0000
7FFF0000
7FFF0000
FE3F0000
FC3F0000
FC3F0000
FC3F0000
FC3F0000
FC3F0000
FE3F0000
7FFFF800
7FFFFF00
3FFFFF80
1FFFFFC0
07FFFFC0
003F0FE0
003F07E0
003F07E0
003F07E0
003F07E0
003F07E0
003F0FE0
003FFFC0
003FFFC0
003FFF80
003FFE00
003FF800
003F0000
003F0000
ENDCHAR
STARTCHAR 0025
ENCODING 37
SWIDTH 980 0
DWIDTH 49 0
BBX 47 29 1 0
BITMAP
07FC003F0000
1FFF003F0000
3FFF803F0000
7FFFC03F0000
FFFFE03F0000
FE0FE03F0000
FC07E03F0000
FC03F03F0000
FC03F03F0000
FC07F03F0000
FE07E07F0000
FFFFE07E0000
7FFFCFFE0000
3FFFBFFEFF80
1FFF7FFFFFE0
07FCFFFFFFF0
0001FFEFFFF8
0001FC1FFFFC
0001F81FC1FC
0001F81F80FC
0001F81F807E
0001F81F807E
0001F81F80FE
0001F81FC0FC
0001F81FFFFC
0001F80FFFF8
0001F807FFF0
0001F803FFE0
0001F800FF80
ENDCHAR
STARTCHAR 0026
ENCODING 38
SWIDTH 680 0
DWIDTH 34 0
BBX 30 29 2 0
BITMAP
03FFF000
0FFFF000
3FFFF000
7FFFF000
7FFFF000
FE03F000
FC03F000
FC03F000
FC03F000
FC03F000
FC03F000
FC03F000
FFFFFFFC
FFFFFFFC
FFFFFFFC
FFFFFFFC
FFFFFFFC
FC03F000
FC03F000
FC03F000
FC03F000
FC03F000
FC03F000
FE01F800
7FFFFFFC
7FFFFFFC
3FFFFFFC
1FFFFFFC
07FFFFFC
ENDCHAR
STARTCHAR 0027
ENCODING 39
SWIDTH 200 0
DWIDTH 10 0
BBX 6 9 2 20
BITMAP
78
FC
FC
FC
FC
FC
FC
FC
FC
ENDCHAR
STARTCHAR 0028
ENCODING 40
SWIDTH 300 0
DWIDTH 15 0
BBX 12 39 2 -5
BITMAP
07F0
1FF0
3FF0
7FF0
7FF0
FE00
FC00
FC00
FC00
FC00
FC00
FC00
FC00
FC00
FC00
FC00
FC00
FC00
FC00
FC00
FC00
FC00
FC00
FC00
FC00
FC00
FC00
FC00
FC00
FC00
FC00
FC00
FC00
FE00
7FF0
7FF0
3FF0
1FF0
07F0
ENDCHAR
STARTCHAR 0029
ENCODING 41
SWIDTH 320 0
DWIDTH 16 0
BBX 12 39 2 -5
BITMAP
FC00
FF00
FFC0
FFC0
FFE0
07E0
03F0
03F0
03F0
03F0
03F0
03F0
03F0
03F0
03F0
03F0
03F0
03F0
03F0
03F0
03F0
03F0
03F0
03F0
03F0
03F0
03F0
03F0
03F0
03F0
03F0
03F0
03F0
07F0
FFE0
FFE0
FFC0
FF80
FE00
ENDCHAR
STARTCHAR 002A
ENCODING 42
SWIDTH 640 0
DWIDTH 32 0
BBX 29 26 2 1
BITMAP
01C01C00
03F07C00
0318C600
020D8600
02070600
03060400
01050400
010D8400
01FFFC00
0FF07F80
78B068F0
E0E03038
C0403018
C0E03018
E0A03830
38B048E0
07F0FF00
013FE400
030D8400
03070600
02020200
02050200
02088200
02104200
03E03E00
03C01C00
ENDCHAR
STARTCHAR 002B
ENCODING 43
SWIDTH 380 0
DWIDTH 19 0
BBX 16 15 2 7
BITMAP
07E0
07E0
07E0
07E0
07E0
FFFF
FFFF
FFFF
FFFF
FFFF
07E0
07E0
07E0
07E0
07E0
ENDCHAR
STARTCHAR 002C
ENCODING 44
SWIDTH 180 0
DWIDTH 9 0
BBX 6 10 2 -4
BITMAP
78
FC
FC
FC
FC
FC
FC
FC
FC
FC
ENDCHAR
STARTCHAR 002D
ENCODING 45
SWIDTH 340 0
DWIDTH 17 0
BBX 12 5 3 12
BITMAP
FFF0
FFF0
FFF0
FFF0
FFF0
ENDCHAR
STARTCHAR 002E
ENCODING 46
SWIDTH 180 0
DWIDTH 9 0
BBX 6 6 1 0
BITMAP
78
FC
FC
FC
FC
78
ENDCHAR
STARTCHAR 002F
ENCODING 47
SWIDTH 380 0
DWIDTH 19 0
BBX 18 29 1 0
BITMAP
000FC0
000FC0
000FC0
000FC0
000FC0
000FC0
000FC0
000FC0
000FC0
000FC0
000FC0
001FC0
03FF80
1FFF80
3FFF00
7FFE00
7FF800
FE0000
FC0000
FC0000
FC0000
FC0000
FC0000
FC0000
FC0000
FC0000
FC0000
FC0000
FC0000
ENDCHAR
STARTCHAR 0030
ENCODING 48
SWIDTH 620 0
DWIDTH 31 0
BBX 28 29 2 0
BITMAP
03FFFC00
0FFFFF00
3FFFFFC0
7FFFFFE0
7FFFFFE0
FE0007F0
FC0003F0
FC0003F0
FC0003F0
FC0003F0
FC0003F0
FC0003F0
FC0003F0
FC0003F0
FC0003F0
FC0003F0
FC0003F0
FC0003F0
FC0003F0
FC0003F0
FC0003F0
FC0003F0
FC0003F0
FE0007F0
7FFFFFE0
7FFFFFE0
3FFFFFC0
1FFFFF80
07FFFE00
ENDCHAR
STARTCHAR 0031
ENCODING 49
SWIDTH 280 0
DWIDTH 14 0
BBX 10 29 2 0
BITMAP
F000
FC00
FF00
FF80
FF80
1FC0
0FC0
0FC0
0FC0
0FC0
0FC0
0FC0
0FC0
0FC0
0FC0
0FC0
0FC0
0FC0
0FC0
0FC0
0FC0
0FC0
0FC0
0FC0
0FC0
0FC0
0FC0
0FC0
0FC0
ENDCHAR
STARTCHAR 0032
ENCODING 50
SWIDTH 580 0
DWIDTH 29 0
BBX 27 29 1 0
BITMAP
7FFFF800
7FFFFE00
7FFFFF00
7FFFFF80
7FFFFFC0
00001FC0
00000FE0
000007E0
000007E0
000007E0
000007E0
00000FC0
07FFFFC0
1FFFFFC0
3FFFFF80
7FFFFE00
FFFFFC00
FE000000
FC000000
FC000000
FC000000
FC000000
FC000000
FE000000
7FFFFFE0
7FFFFFE0
3FFFFFE0
1FFFFFE0
07FFFFE0
ENDCHAR
STARTCHAR 0033
ENCODING 51
SWIDTH 580 0
DWIDTH 29 0
BBX 26 29 2 0
BITMAP
FFFFF800
FFFFFE00
FFFFFF00
FFFFFF80
FFFFFF80
00001FC0
00000FC0
00000FC0
00000FC0
00000FC0
00000FC0
00001FC0
FFFFFF80
FFFFFF80
FFFFFF00
FFFFFF80
FFFFFF80
00001FC0
00000FC0
00000FC0
00000FC0
00000FC0
00000FC0
00001FC0
FFFFFF80
FFFFFF80
FFFFFF00
FFFFFE00
FFFFF800
ENDCHAR
STARTCHAR 0034
ENCODING 52
SWIDTH 600 0
DWIDTH 30 0
BBX 26 29 2 0
BITMAP
FC00FC00
FC00FC00
FC00FC00
FC00FC00
FC00FC00
FC00FC00
FC00FC00
FC00FC00
FC00FC00
FC00FC00
FC00FC00
FE00FC00
7FFFFFC0
7FFFFFC0
3FFFFFC0
1FFFFFC0
07FFFFC0
0000FC00
0000FC00
0000FC00
0000FC00
0000FC00
0000FC00
0000FC00
0000FC00
0000FC00
0000FC00
0000FC00
0000FC00
ENDCHAR
STARTCHAR 0035
ENCODING 53
SWIDTH 600 0
DWIDTH 30 0
BBX 27 29 2 0
BITMAP
03FFFFC0
0FFFFFC0
3FFFFFC0
7FFFFFC0
7FFFFFC0
FE000000
FC000000
FC000000
FC000000
FC000000
FC000000
FE000000
7FFFFC00
7FFFFF00
3FFFFF80
1FFFFFC0
07FFFFC0
00000FE0
000007E0
000007E0
000007E0
000007E0
000007E0
00000FE0
FFFFFFC0
FFFFFF80
FFFFFF80
FFFFFE00
FFFFF800
ENDCHAR
STARTCHAR 0036
ENCODING 54
SWIDTH 600 0
DWIDTH 30 0
BBX 27 29 2 0
BITMAP
03FFFFC0
0FFFFFC0
3FFFFFC0
7FFFFFC0
7FFFFFC0
FE000000
FC000000
FC000000
FC000000
FC000000
FC000000
FC000000
FCFFF800
FCFFFE00
FCFFFF80
FCFFFFC0
FCFFFFC0
FC000FE0
FC0007E0
FC0007E0
FC0007E0
FC0007E0
FC0007E0
FE000FE0
7FFFFFC0
7FFFFFC0
3FFFFF80
1FFFFF00
07FFFC00
ENDCHAR
STARTCHAR 0037
ENCODING 55
SWIDTH 560 0
DWIDTH 28 0
BBX 22 29 4 0
BITMAP
FFFF00
FFFFC0
FFFFF0
FFFFF0
FFFFF8
0001F8
0000FC
0000FC
0000FC
0000FC
0000FC
0000FC
0000FC
0000FC
0000FC
0000FC
0000FC
0000FC
0000FC
0000FC
0000FC
0000FC
0000FC
0000FC
0000FC
0000FC
0000FC
0000FC
0000FC
ENDCHAR
STARTCHAR 0038
ENCODING 56
SWIDTH 580 0
DWIDTH 29 0
BBX 27 29 1 0
BITMAP
03FFFC00
0FFFFF00
3FFFFF80
3FFFFFC0
7FFFFFC0
7E000FE0
FC0007E0
FC0007E0
FC0007E0
FC0007E0
FC0007E0
7E000FE0
7FFFFFC0
3FFFFFC0
3FFFFF80
7FFFFFC0
7FFFFFC0
7E000FE0
FC0007E0
FC0007E0
FC0007E0
FC0007E0
FC0007E0
7E000FE0
7FFFFFC0
3FFFFFC0
3FFFFF80
0FFFFF00
03FFFC00
ENDCHAR
STARTCHAR 0039
ENCODING 57
SWIDTH 600 0
DWIDTH 30 0
BBX 27 29 2 0
BITMAP
03FFFC00
0FFFFF00
3FFFFF80
3FFFFFC0
7FFFFFE0
7E000FE0
FC0007E0
FC0007E0
FC0007E0
FC0007E0
FE0007E0
7F0007E0
7FFFE7E0
3FFFE7E0
1FFFE7E0
0FFFE7E0
03FFE7E0
000007E0
000007E0
000007E0
000007E0
000007E0
000007E0
00000FE0
7FFFFFC0
7FFFFFC0
7FFFFF80
7FFFFF00
7FFFFC00
ENDCHAR
STARTCHAR 003A
ENCODING 58
SWIDTH 180 0
DWIDTH 9 0
BBX 6 17 2 0
BITMAP
78
FC
FC
FC
78
00
00
00
00
00
00
00
78
FC
FC
FC
78
ENDCHAR
STARTCHAR 003B
ENCODING 59
SWIDTH 180 0
DWIDTH 9 0
BBX 6 21 2 -4
BITMAP
78
FC
FC
FC
78
00
00
00
00
00
00
00
78
FC
FC
FC
FC
FC
FC
FC
FC
ENDCHAR
STARTCHAR 003C
ENCODING 60
SWIDTH 320 0
DWIDTH 16 0
BBX 11 21 3 3
BITMAP
0100
0380
07C0
0FC0
1FC0
3F80
7F00
7E00
7C00
FC00
FC00
FC00
7C00
7E00
7F00
3F80
1FC0
0FE0
07C0
0380
0100
ENDCHAR
STARTCHAR 003D
ENCODING 61
SWIDTH 360 0
DWIDTH 18 0
BBX 15 15 2 7
BITMAP
FFFE
FFFE
FFFE
FFFE
FFFE
0000
0000
0000
0000
0000
FFFE
FFFE
FFFE
FFFE
FFFE
ENDCHAR
STARTCHAR 003E
ENCODING 62
SWIDTH 280 0
DWIDTH 14 0
BBX 10 21 2 3
BITMAP
1000
3800
7C00
FC00
7E00
3F00
3F80
1FC0
0FC0
0FC0
0FC0
0FC0
0FC0
0FC0
1F80
3F80
7F00
FE00
7C00
3800
1000
ENDCHAR
STARTCHAR 003F
ENCODING 63
SWIDTH 760 0
DWIDTH 38 0
BBX 34 29 3 0
BITMAP
FFFFFFF000
FFFFFFFC00
FFFFFFFE00
FFFFFFFF00
FFFFFFFF80
0000003F80
0000001F80
0000000FC0
0000000FC0
0000000FC0
0000001F80
0000001F80
07FFFFFF80
1FFFFFFF00
3FFFFFFE00
7FFFFFFC00
FFFFFFF000
FE00000000
FC00000000
FC00000000
FC00000000
0000000000
0000000000
0000000000
7000000000
F800000000
FC00000000
F800000000
7000000000
ENDCHAR
STARTCHAR 0040
ENCODING 64
SWIDTH 740 0
DWIDTH 37 0
BBX 34 29 2 0
BITMAP
07FFFFF800
1FFFFFFE00
3FFFFFFF00
7FFFFFFF80
7FFFFFFF80
FE00001FC0
FC03F80FC0
FC0FFE0FC0
FC3FFF8FC0
FC7FFF8FC0
FC7FFFCFC0
FCFE0FEFC0
FCFC07EFC0
FCFC07EFC0
FCFC07EFC0
FCFC07EFC0
FCFE0FFFC0
FC7FFFFF80
FC7FFFFF80
FC3FFFFF00
FC1FFFFE00
FC07FFF800
FC00000000
FE00000000
7FFFFFFFC0
7FFFFFFFC0
3FFFFFFFC0
0FFFFFFFC0
03FFFFFFC0
ENDCHAR
STARTCHAR 0041
ENCODING 65
SWIDTH 720 0
DWIDTH 36 0
BBX 35 29 1 0
BITMAP
001FFF0000
007FFFC000
00FFFFE000
01FFFFF000
03FFFFF000
03F003F800
03E001F800
07C000F800
07C000FC00
07C000FC00
0FC000FC00
0F80007C00
0F8FFFFE00
0F8FFFFE00
1F8FFFFE00
1F1FFFFF00
1F1FFFFF00
1F00003F00
3F00001F00
3E00001F80
3E00001F80
3E00001F80
7E00000F80
7C00000FC0
7C00000FC0
7C00000FC0
FC000007C0
F8000007E0
F8000007E0
ENDCHAR
STARTCHAR 0042
ENCODING 66
SWIDTH 780 0
DWIDTH 39 0
BBX 36 29 2 0
BITMAP
FFFFFFFC00
FFFFFFFF00
FFFFFFFFC0
FFFFFFFFC0
FFFFFFFFE0
FC000007E0
FC000003F0
FC000003F0
FC000003F0
FC000003F0
FC000003F0
FC000007E0
FDFFFFFFE0
FDFFFFFFC0
FDFFFFFF80
FDFFFFFFC0
FDFFFFFFE0
FC000007E0
FC000003F0
FC000003F0
FC000003F0
FC000003F0
FC000003F0
FC000007E0
FFFFFFFFE0
FFFFFFFFC0
FFFFFFFFC0
FFFFFFFF00
FFFFFFFC00
ENDCHAR
STARTCHAR 0043
ENCODING 67
SWIDTH 740 0
DWIDTH 37 0
BBX 34 29 2 0
BITMAP
03FFFFFFC0
0FFFFFFFC0
3FFFFFFFC0
7FFFFFFFC0
7FFFFFFFC0
FE00000000
FC00000000
FC00000000
FC00000000
FC00000000
FC00000000
FC00000000
FC00000000
FC00000000
FC00000000
FC00000000
FC00000000
FC00000000
FC00000000
FC00000000
FC00000000
FC00000000
FC00000000
FE00000000
7FFFFFFFC0
7FFFFFFFC0
3FFFFFFFC0
1FFFFFFFC0
07FFFFFFC0
ENDCHAR
STARTCHAR 0044
ENCODING 68
SWIDTH 780 0
DWIDTH 39 0
BBX 36 29 2 0
BITMAP
FFFFFFFC00
FFFFFFFF00
FFFFFFFF80
FFFFFFFFC0
FFFFFFFFE0
FC00000FE0
FC000007F0
FC000003F0
FC000003F0
FC000003F0
FC000003F0
FC000003F0
FC000003F0
FC000003F0
FC000003F0
FC000003F0
FC000003F0
FC000003F0
FC000003F0
FC000003F0
FC000003F0
FC000003F0
FC000003F0
FC000007E0
FFFFFFFFE0
FFFFFFFFE0
FFFFFFFFC0
FFFFFFFF00
FFFFFFFC00
ENDCHAR
STARTCHAR 0045
ENCODING 69
SWIDTH 740 0
DWIDTH 37 0
BBX 34 29 2 0
BITMAP
03FFFFFFC0
0FFFFFFFC0
3FFFFFFFC0
7FFFFFFFC0
7FFFFFFFC0
FE00000000
FC00000000
FC00000000
FC00000000
FC00000000
FC00000000
FC00000000
FFFFFFFFC0
FFFFFFFFC0
FFFFFFFFC0
FFFFFFFFC0
FFFFFFFFC0
FC00000000
FC00000000
FC00000000
FC00000000
FC00000000
FC00000000
FE00000000
7FFFFFFFC0
7FFFFFFFC0
3FFFFFFFC0
1FFFFFFFC0
07FFFFFFC0
ENDCHAR
STARTCHAR 0046
ENCODING 70
SWIDTH 740 0
DWIDTH 37 0
BBX 34 29 2 0
BITMAP
03FFFFFFC0
0FFFFFFFC0
3FFFFFFFC0
7FFFFFFFC0
7FFFFFFFC0
FE00000000
FC00000000
FC00000000
FC00000000
FC00000000
FC00000000
FC00000000
FFFFFFFFC0
FFFFFFFFC0
FFFFFFFFC0
FFFFFFFFC0
FFFFFFFFC0
FC00000000
FC00000000
FC00000000
FC00000000
FC00000000
FC00000000
FC00000000
FC00000000
FC00000000
FC00000000
FC00000000
FC00000000
ENDCHAR
STARTCHAR 0047
ENCODING 71
SWIDTH 740 0
DWIDTH 37 0
BBX 34 29 2 0
BITMAP
03FFFFFFC0
0FFFFFFFC0
3FFFFFFFC0
7FFFFFFFC0
7FFFFFFFC0
FE00000000
FC00000000
FC00000000
FC00000000
FC00000000
FC00000000
FC00000000
FCFFFFF000
FCFFFFFC00
FCFFFFFF00
FCFFFFFF80
FCFFFFFF80
FC00001FC0
FC00000FC0
FC00000FC0
FC00000FC0
FC00000FC0
FC00000FC0
FE00001FC0
7FFFFFFF80
7FFFFFFF80
3FFFFFFF00
1FFFFFFE00
07FFFFF800
ENDCHAR
STARTCHAR 0048
ENCODING 72
SWIDTH 740 0
DWIDTH 37 0
BBX 34 29 1 0
BITMAP
FC00000FC0
FC00000FC0
FC00000FC0
FC00000FC0
FC00000FC0
FC00000FC0
FC00000FC0
FC00000FC0
FC00000FC0
FC00000FC0
FC00000FC0
FC00000FC0
FDFFFFFFC0
FDFFFFFFC0
FDFFFFFFC0
FDFFFFFFC0
FDFFFFFFC0
FC00000FC0
FC00000FC0
FC00000FC0
FC00000FC0
FC00000FC0
FC00000FC0
FC00000FC0
FC00000FC0
FC00000FC0
FC00000FC0
FC00000FC0
FC00000FC0
ENDCHAR
STARTCHAR 0049
ENCODING 73
SWIDTH 180 0
DWIDTH 9 0
BBX 6 29 2 0
BITMAP
FC
FC
FC
FC
FC
FC
FC
FC
FC
FC
FC
FC
FC
FC
FC
FC
FC
FC
FC
FC
FC
FC
FC
FC
FC
FC
FC
FC
FC
ENDCHAR
STARTCHAR 004A
ENCODING 74
SWIDTH 680 0
DWIDTH 34 0
BBX 30 29 3 0
BITMAP
000000FC
000000FC
000000FC
000000FC
000000FC
000000FC
000000FC
000000FC
000000FC
000000FC
000000FC
000000FC
000000FC
000000FC
000000FC
000000FC
000000FC
000000FC
000000FC
000000FC
000000FC
000000FC
000001FC
000001F8
FFFFFFF8
FFFFFFF0
FFFFFFE0
FFFFFFC0
FFFFFF00
ENDCHAR
STARTCHAR 004B
ENCODING 75
SWIDTH 780 0
DWIDTH 39 0
BBX 36 29 2 0
BITMAP
FC000003F0
FC000003F0
FC000003F0
FC000003F0
FC000003F0
FC000003F0
FC000003E0
FC000007E0
FC000007E0
FC00000FC0
FC00001FC0
FC00007F80
FDFFFFFF80
FDFFFFFE00
FDFFFFFC00
FDFFFFFE00
FDFFFFFF80
FC00007F80
FC00001FC0
FC00000FE0
FC000007E0
FC000007E0
FC000003E0
FC000003F0
FC000003F0
FC000003F0
FC000003F0
FC000003F0
FC000003F0
ENDCHAR
STARTCHAR 004C
ENCODING 76
SWIDTH 660 0
DWIDTH 33 0
BBX 30 29 2 0
BITMAP
FC000000
FC000000
FC000000
FC000000
FC000000
FC000000
FC000000
FC000000
FC000000
FC000000
FC000000
FC000000
FC000000
FC000000
FC000000
FC000000
FC000000
FC000000
FC000000
FC000000
FC000000
FC000000
FC000000
FE000000
7FFFFFFC
7FFFFFFC
3FFFFFFC
1FFFFFFC
07FFFFFC
ENDCHAR
STARTCHAR 004D
ENCODING 77
SWIDTH 1020 0
DWIDTH 51 0
BBX 48 29 1 0
BITMAP
03FF0000FFE0
0FFFC003FFF8
3FFFE007FFFC
3FFFF00FFFFE
7FFFF81FFFFF
7E03F81F807F
FC01F83F803F
FC01F83F003F
FC01F83F003F
FC01F83F003F
FC01F83F003F
FC01F83F003F
FC01F83F003F
FC01F83F003F
FC01F83F003F
FC01F83F003F
FC01F83F003F
FC01F83F003F
FC01F83F003F
FC01F83F003F
FC01F83F003F
FC01F83F003F
FC01F83F003F
FC00FC7F003F
FC00FFFF003F
FC007FFE003F
FC007FFC003F
FC001FF8003F
FC0007E0003F
ENDCHAR
STARTCHAR 004E
ENCODING 78
SWIDTH 780 0
DWIDTH 39 0
BBX 36 29 1 0
BITMAP
03FF0003F0
0FFFC003F0
3FFFE003F0
3FFFF003F0
7FFFF803F0
7E03F803F0
FC01F803F0
FC01F803F0
FC01F803F0
FC01F803F0
FC01F803F0
FC01F803F0
FC01F803F0
FC01F803F0
FC01F803F0
FC01F803F0
FC01F803F0
FC01F803F0
FC01F803F0
FC01F803F0
FC01F803F0
FC01F803F0
FC01F803F0
FC00FC07F0
FC00FFFFF0
FC007FFFE0
FC003FFFC0
FC001FFF80
FC0007FE00
ENDCHAR
STARTCHAR 004F
ENCODING 79
SWIDTH 780 0
DWIDTH 39 0
BBX 35 29 2 0
BITMAP
03FFFFF800
0FFFFFFE00
3FFFFFFF80
7FFFFFFFC0
7FFFFFFFC0
FE00000FE0
FC000007E0
FC000007E0
FC000007E0
FC000007E0
FC000007E0
FC000007E0
FC000007E0
FC000007E0
FC000007E0
FC000007E0
FC000007E0
FC000007E0
FC000007E0
FC000007E0
FC000007E0
FC000007E0
FC000007E0
FE00000FE0
7FFFFFFFC0
7FFFFFFFC0
3FFFFFFF80
1FFFFFFF00
07FFFFFC00
ENDCHAR
STARTCHAR 0050
ENCODING 80
SWIDTH 760 0
DWIDTH 38 0
BBX 36 29 2 0
BITMAP
FFFFFFFC00
FFFFFFFF00
FFFFFFFFC0
FFFFFFFFC0
FFFFFFFFE0
FC000007E0
FC000003F0
FC000003F0
FC000003F0
FC000003F0
FC000003F0
FC000007E0
FDFFFFFFE0
FDFFFFFFE0
FDFFFFFFC0
FDFFFFFF00
FDFFFFFC00
FC00000000
FC00000000
FC00000000
FC00000000
FC00000000
FC00000000
FC00000000
FC00000000
FC00000000
FC00000000
FC00000000
FC00000000
ENDCHAR
STARTCHAR 0051
ENCODING 81
SWIDTH 780 0
DWIDTH 39 0
BBX 35 34 2 -5
BITMAP
03FFFFF800
0FFFFFFE00
3FFFFFFF80
7FFFFFFFC0
7FFFFFFFC0
FE00000FE0
FC000007E0
FC000007E0
FC000007E0
FC000007E0
FC000007E0
FC000007E0
FC000007E0
FC000007E0
FC000007E0
FC000007E0
FC000007E0
FC000007E0
FC000007E0
FC01F807E0
FC01F807E0
FC01F807E0
FC01F807E0
FE01F80FE0
7FFFFFFFC0
7FFFFFFFC0
3FFFFFFF80
1FFFFFFF00
07FFFFFC00
0001F80000
0001F80000
0001F80000
0001F80000
0001F80000
ENDCHAR
STARTCHAR 0052
ENCODING 82
SWIDTH 780 0
DWIDTH 39 0
BBX 36 29 2 0
BITMAP
FFFFFFFC00
FFFFFFFF00
FFFFFFFFC0
FFFFFFFFC0
FFFFFFFFE0
FC000007E0
FC000003F0
FC000003F0
FC000003F0
FC000003F0
FC000003F0
FC000007E0
FDFFFFFFE0
FDFFFFFFC0
FDFFFFFF80
FDFFFFFFC0
FDFFFFFFE0
FC000007E0
FC000003F0
FC000003F0
FC000003F0
FC000003F0
FC000003F0
FC000003F0
FC000003F0
FC000003F0
FC000003F0
FC000003F0
FC000003F0
ENDCHAR
STARTCHAR 0053
ENCODING 83
SWIDTH 740 0
DWIDTH 37 0
BBX 34 29 2 0
BITMAP
07FFFFFFC0
1FFFFFFFC0
3FFFFFFFC0
7FFFFFFFC0
7FFFFFFFC0
FE00000000
FC00000000
FC00000000
FC00000000
FC00000000
FC00000000
FE00000000
7FFFFFF800
7FFFFFFE00
3FFFFFFF00
1FFFFFFF80
07FFFFFF80
0000001FC0
0000000FC0
0000000FC0
0000000FC0
0000000FC0
0000000FC0
0000001FC0
FFFFFFFF80
FFFFFFFF00
FFFFFFFF00
FFFFFFFC00
FFFFFFF000
ENDCHAR
STARTCHAR 0054
ENCODING 84
SWIDTH 740 0
DWIDTH 37 0
BBX 34 29 2 0
BITMAP
FFFFFFFFC0
FFFFFFFFC0
FFFFFFFFC0
FFFFFFFFC0
FFFFFFFFC0
0003F00000
0003F00000
0003F00000
0003F00000
0003F00000
0003F00000
0003F00000
0003F00000
0003F00000
0003F00000
0003F00000
0003F00000
0003F00000
0003F00000
0003F00000
0003F00000
0003F00000
0003F00000
0003F00000
0003F00000
0003F00000
0003F00000
0003F00000
0003F00000
ENDCHAR
STARTCHAR 0055
ENCODING 85
SWIDTH 780 0
DWIDTH 39 0
BBX 35 29 2 0
BITMAP
FC000007E0
FC000007E0
FC000007E0
FC000007E0
FC000007E0
FC000007E0
FC000007E0
FC000007E0
FC000007E0
FC000007E0
FC000007E0
FC000007E0
FC000007E0
FC000007E0
FC000007E0
FC000007E0
FC000007E0
FC000007E0
FC000007E0
FC000007E0
FC000007E0
FC000007E0
FC000007E0
FE00000FE0
7FFFFFFFC0
7FFFFFFFC0
3FFFFFFF80
1FFFFFFF00
07FFFFFC00
ENDCHAR
STARTCHAR 0056
ENCODING 86
SWIDTH 720 0
DWIDTH 36 0
BBX 35 29 1 0
BITMAP
F8000003E0
F8000007E0
F8000007C0
FC000007C0
7C000007C0
7C00000F80
7C00000F80
7E00000F80
3E00001F80
3E00001F00
3E00001F00
1F00001F00
1F00003F00
1F00003E00
1F00003E00
0F80003E00
0F80007E00
0F80007C00
0F80007C00
07C0007C00
07C000FC00
07C000F800
07E001F800
03F003F800
03FFFFF000
01FFFFF000
00FFFFE000
007FFFC000
003FFF0000
ENDCHAR
STARTCHAR 0057
ENCODING 87
SWIDTH 1000 0
DWIDTH 50 0
BBX 48 29 1 0
BITMAP
FC000FE0003F
FC003FF8003F
FC007FFC003F
FC00FFFE003F
FC00FFFE003F
FC01FC7F003F
FC01F83F003F
FC01F83F003F
FC01F83F003F
FC01F83F003F
FC01F83F003F
FC01F83F003F
FC01F83F003F
FC01F83F003F
FC01F83F003F
FC01F83F003F
FC01F83F003F
FC01F83F003F
FC01F83F003F
FC01F83F003F
FC01F83F003F
FC01F83F003F
FC01F83F003F
FE03F83F807F
7FFFF01FFFFE
7FFFF01FFFFE
3FFFE00FFFFC
1FFFC003FFF0
07FF0000FFC0
ENDCHAR
STARTCHAR 0058
ENCODING 88
SWIDTH 780 0
DWIDTH 39 0
BBX 35 29 2 0
BITMAP
FC000007E0
FC000007E0
FC000007E0
FC000007E0
FC000007E0
FC000007E0
FC000007E0
FC000007E0
FC000007E0
FC000007E0
FE000007E0
7E00000FE0
7FFFFFFFE0
3FFFFFFFC0
1FFFFFFF80
3FFFFFFFC0
7FFFFFFFE0
7F00000FE0
FE000007E0
FC000007E0
FC000007E0
FC000007E0
FC000007E0
FC000007E0
FC000007E0
FC000007E0
FC000007E0
FC000007E0
FC000007E0
ENDCHAR
STARTCHAR 0059
ENCODING 89
SWIDTH 760 0
DWIDTH 38 0
BBX 35 29 2 0
BITMAP
FC000007E0
FC000007E0
FC000007E0
FC000007E0
FC000007E0
FC000007E0
FC000007E0
FC000007E0
FC000007E0
FC000007E0
FC000007E0
FE00000FE0
7FFFFFFFC0
7FFFFFFFC0
3FFFFFFF80
1FFFFFFF00
07FFFFFC00
0001F80000
0001F80000
0001F80000
0001F80000
0001F80000
0001F80000
0001F80000
0001F80000
0001F80000
0001F80000
0001F80000
0001F80000
ENDCHAR
STARTCHAR 005A
ENCODING 90
SWIDTH 760 0
DWIDTH 38 0
BBX 34 29 3 0
BITMAP
FFFFFFF000
FFFFFFFC00
FFFFFFFE00
FFFFFFFF00
FFFFFFFF80
0000003F80
0000001F80
0000000FC0
0000000FC0
0000000FC0
0000001F80
0000001F80
07FFFFFF80
1FFFFFFF00
3FFFFFFE00
7FFFFFFC00
FFFFFFF000
FE00000000
FC00000000
FC00000000
FC00000000
FC00000000
FC00000000
FE00000000
FFFFFFFFC0
7FFFFFFFC0
3FFFFFFFC0
1FFFFFFFC0
07FFFFFFC0
ENDCHAR
STARTCHAR 005B
ENCODING 91
SWIDTH 300 0
DWIDTH 15 0
BBX 12 39 2 -5
BITMAP
FFF0
FFF0
FFF0
FFF0
FFF0
FC00
FC00
FC00
FC00
FC00
FC00
FC00
FC00
FC00
FC00
FC00
FC00
FC00
FC00
FC00
FC00
FC00
FC00
FC00
FC00
FC00
FC00
FC00
FC00
FC00
FC00
FC00
FC00
FC00
FFF0
FFF0
FFF0
FFF0
FFF0
ENDCHAR
STARTCHAR 005C
ENCODING 92
SWIDTH 400 0
DWIDTH 20 0
BBX 18 29 1 0
BITMAP
FC0000
FC0000
FC0000
FC0000
FC0000
FC0000
FC0000
FC0000
FC0000
FC0000
FC0000
FE0000
7FF800
7FFE00
3FFF00
1FFF80
07FF80
001FC0
000FC0
000FC0
000FC0
000FC0
000FC0
000FC0
000FC0
000FC0
000FC0
000FC0
000FC0
ENDCHAR
STARTCHAR 005D
ENCODING 93
SWIDTH 320 0
DWIDTH 16 0
BBX 12 39 2 -5
BITMAP
FFF0
FFF0
FFF0
FFF0
FFF0
03F0
03F0
03F0
03F0
03F0
03F0
03F0
03F0
03F0
03F0
03F0
03F0
03F0
03F0
03F0
03F0
03F0
03F0
03F0
03F0
03F0
03F0
03F0
03F0
03F0
03F0
03F0
03F0
03F0
FFF0
FFF0
FFF0
FFF0
FFF0
ENDCHAR
STARTCHAR 005E
ENCODING 94
SWIDTH 500 0
DWIDTH 25 0
BBX 20 10 3 18
BITMAP
01F800
07FE00
0FFF00
1FFF80
3FFFC0
7F0FE0
FE07F0
FC03F0
7801E0
3000C0
ENDCHAR
STARTCHAR 005F
ENCODING 95
SWIDTH 520 0
DWIDTH 26 0
BBX 21 5 3 -5
BITMAP
FFFFF8
FFFFF8
FFFFF8
FFFFF8
FFFFF8
ENDCHAR
STARTCHAR 0060
ENCODING 96
SWIDTH 400 0
DWIDTH 20 0
BBX 8 4 7 27
BITMAP
F8
FC
7E
3F
ENDCHAR
STARTCHAR 0061
ENCODING 97
SWIDTH 740 0
DWIDTH 37 0
BBX 34 29 2 0
BITMAP
FFFFFFF000
FFFFFFFC00
FFFFFFFE00
FFFFFFFF00
FFFFFFFF80
0000003F80
0000001FC0
0000000FC0
0000000FC0
0000000FC0
0000000FC0
0000000FC0
07FFFFCFC0
1FFFFFCFC0
3FFFFFCFC0
7FFFFFCFC0
7FFFFFCFC0
FE00000FC0
FC00000FC0
FC00000FC0
FC00000FC0
FC00000FC0
FC00000FC0
FE00001FC0
7FFFFFFF80
7FFFFFFF80
3FFFFFFF00
1FFFFFFE00
07FFFFF000
ENDCHAR
STARTCHAR 0062
ENCODING 98
SWIDTH 740 0
DWIDTH 37 0
BBX 34 29 2 0
BITMAP
FC00000000
FC00000000
FC00000000
FC00000000
FC00000000
FC00000000
FC00000000
FC00000000
FC00000000
FC00000000
FC00000000
FC00000000
FCFFFFF000
FCFFFFFC00
FCFFFFFF00
FCFFFFFF80
FCFFFFFF80
FC00001FC0
FC00000FC0
FC00000FC0
FC00000FC0
FC00000FC0
FC00000FC0
FE00001FC0
7FFFFFFF80
7FFFFFFF80
3FFFFFFF00
1FFFFFFE00
07FFFFF800
ENDCHAR
STARTCHAR 0063
ENCODING 99
SWIDTH 740 0
DWIDTH 37 0
BBX 34 29 2 0
BITMAP
03FFFFFFC0
0FFFFFFFC0
3FFFFFFFC0
7FFFFFFFC0
7FFFFFFFC0
FE00000000
FC00000000
FC00000000
FC00000000
FC00000000
FC00000000
FC00000000
FC00000000
FC00000000
FC00000000
FC00000000
FC00000000
FC00000000
FC00000000
FC00000000
FC00000000
FC00000000
FC00000000
FE00000000
7FFFFFFFC0
7FFFFFFFC0
3FFFFFFFC0
1FFFFFFFC0
07FFFFFFC0
ENDCHAR
STARTCHAR 0064
ENCODING 100
SWIDTH 740 0
DWIDTH 37 0
BBX 35 29 1 0
BITMAP
0000000FE0
0000000FE0
0000000FE0
0000000FE0
0000000FE0
0000000FE0
0000000FE0
0000000FE0
0000000FE0
0000000FE0
0000000FE0
0000000FE0
03FFFFCFE0
0FFFFFCFE0
1FFFFFCFE0
3FFFFFCFE0
7FFFFFCFE0
7F00000FE0
7E00000FE0
FE00000FE0
FE00000FE0
FE00000FE0
7E00000FC0
7E00000FC0
7FFFFFFFC0
3FFFFFFF80
1FFFFFFF00
0FFFFFFE00
03FFFFF800
ENDCHAR
STARTCHAR 0065
ENCODING 101
SWIDTH 740 0
DWIDTH 37 0
BBX 34 29 1 0
BITMAP
03FFFFF800
0FFFFFFE00
1FFFFFFF00
3FFFFFFF80
7FFFFFFFC0
7E00001FC0
FE00000FC0
FC00000FC0
FC00000FC0
FC00000FC0
FC00000FC0
FC00001FC0
FC7FFFFFC0
FC7FFFFF80
FC7FFFFF00
FC7FFFFE00
FC7FFFF800
FC00000000
FC00000000
FC00000000
FC00000000
FC00000000
7E00000000
7F00000000
7FFFFFFFC0
3FFFFFFFC0
1FFFFFFFC0
0FFFFFFFC0
03FFFFFFC0
ENDCHAR
STARTCHAR 0066
ENCODING 102
SWIDTH 740 0
DWIDTH 37 0
BBX 34 29 2 0
BITMAP
03FFFFFFC0
0FFFFFFFC0
3FFFFFFFC0
7FFFFFFFC0
7FFFFFFFC0
FE00000000
FC00000000
FC00000000
FC00000000
FC00000000
FC00000000
FC00000000
FFFFFFFFC0
FFFFFFFFC0
FFFFFFFFC0
FFFFFFFFC0
FFFFFFFFC0
FC00000000
FC00000000
FC00000000
FC00000000
FC00000000
FC00000000
FC00000000
FC00000000
FC00000000
FC00000000
FC00000000
FC00000000
ENDCHAR
STARTCHAR 0067
ENCODING 103
SWIDTH 740 0
DWIDTH 37 0
BBX 34 29 2 0
BITMAP
03FFFFFFC0
0FFFFFFFC0
3FFFFFFFC0
7FFFFFFFC0
7FFFFFFFC0
FE00000000
FC00000000
FC00000000
FC00000000
FC00000000
FC00000000
FC00000000
FCFFFFF000
FCFFFFFC00
FCFFFFFF00
FCFFFFFF80
FCFFFFFF80
FC00001FC0
FC00000FC0
FC00000FC0
FC00000FC0
FC00000FC0
FC00000FC0
FE00001FC0
7FFFFFFF80
7FFFFFFF80
3FFFFFFF00
1FFFFFFE00
07FFFFF800
ENDCHAR
STARTCHAR 0068
ENCODING 104
SWIDTH 740 0
DWIDTH 37 0
BBX 34 29 1 0
BITMAP
FC00000FC0
FC00000FC0
FC00000FC0
FC00000FC0
FC00000FC0
FC00000FC0
FC00000FC0
FC00000FC0
FC00000FC0
FC00000FC0
FC00000FC0
FC00000FC0
FDFFFFFFC0
FDFFFFFFC0
FDFFFFFFC0
FDFFFFFFC0
FDFFFFFFC0
FC00000FC0
FC00000FC0
FC00000FC0
FC00000FC0
FC00000FC0
FC00000FC0
FC00000FC0
FC00000FC0
FC00000FC0
FC00000FC0
FC00000FC0
FC00000FC0
ENDCHAR
STARTCHAR 0069
ENCODING 105
SWIDTH 180 0
DWIDTH 9 0
BBX 6 29 2 0
BITMAP
FC
FC
FC
FC
FC
FC
FC
FC
FC
FC
FC
FC
FC
FC
FC
FC
FC
FC
FC
FC
FC
FC
FC
FC
FC
FC
FC
FC
FC
ENDCHAR
STARTCHAR 006A
ENCODING 106
SWIDTH 680 0
DWIDTH 34 0
BBX 30 29 2 0
BITMAP
000000FC
000000FC
000000FC
000000FC
000000FC
000000FC
000000FC
000000FC
000000FC
000000FC
000000FC
000000FC
000000FC
000000FC
000000FC
000000FC
000000FC
000000FC
000000FC
000000FC
000000FC
000000FC
000000FC
000001FC
FFFFFFF8
FFFFFFF8
FFFFFFF0
FFFFFFE0
FFFFFF80
ENDCHAR
STARTCHAR 006B
ENCODING 107
SWIDTH 780 0
DWIDTH 39 0
BBX 36 29 2 0
BITMAP
FC000003F0
FC000003F0
FC000003F0
FC000003F0
FC000003F0
FC000003F0
FC000003F0
FC000007E0
FC000007E0
FC00000FE0
FC00001FC0
FC00007F80
FCFFFFFF80
FCFFFFFF00
FCFFFFFC00
FCFFFFFF00
FCFFFFFF80
FC00007FC0
FC00001FC0
FC00000FE0
FC000007E0
FC000007E0
FC000003F0
FC000003F0
FC000003F0
FC000003F0
FC000003F0
FC000003F0
FC000003F0
ENDCHAR
STARTCHAR 006C
ENCODING 108
SWIDTH 660 0
DWIDTH 33 0
BBX 30 29 2 0
BITMAP
FC000000
FC000000
FC000000
FC000000
FC000000
FC000000
FC000000
FC000000
FC000000
FC000000
FC000000
FC000000
FC000000
FC000000
FC000000
FC000000
FC000000
FC000000
FC000000
FC000000
FC000000
FC000000
FC000000
FE000000
7FFFFFFC
7FFFFFFC
3FFFFFFC
1FFFFFFC
07FFFFFC
ENDCHAR
STARTCHAR 006D
ENCODING 109
SWIDTH 1020 0
DWIDTH 51 0
BBX 48 29 1 0
BITMAP
03FE0000FFC0
1FFF8003FFF0
3FFFE00FFFFC
7FFFF01FFFFE
7FFFF01FFFFE
FE03F83F807F
FC01F83F003F
FC01F83F003F
FC01F83F003F
FC01F83F003F
FC01F83F003F
FC01F83F003F
FC01F83F003F
FC01F83F003F
FC01F83F003F
FC01F83F003F
FC01F83F003F
FC01F83F003F
FC01F83F003F
FC01F83F003F
FC01F83F003F
FC01F83F003F
FC01F83F003F
FC01FC7F003F
FC00FFFE003F
FC00FFFE003F
FC007FFC003F
FC003FF8003F
FC000FE0003F
ENDCHAR
STARTCHAR 006E
ENCODING 110
SWIDTH 780 0
DWIDTH 39 0
BBX 36 29 1 0
BITMAP
03FE0003F0
1FFF8003F0
3FFFE003F0
7FFFF003F0
7FFFF003F0
FE03F803F0
FC01F803F0
FC01F803F0
FC01F803F0
FC01F803F0
FC01F803F0
FC01F803F0
FC01F803F0
FC01F803F0
FC01F803F0
FC01F803F0
FC01F803F0
FC01F803F0
FC01F803F0
FC01F803F0
FC01F803F0
FC01F803F0
FC01F803F0
FC01FC07F0
FC00FFFFE0
FC00FFFFE0
FC007FFFC0
FC003FFF80
FC000FFE00
ENDCHAR
STARTCHAR 006F
ENCODING 111
SWIDTH 780 0
DWIDTH 39 0
BBX 35 29 2 0
BITMAP
03FFFFF800
0FFFFFFE00
3FFFFFFF80
7FFFFFFFC0
7FFFFFFFC0
FE00000FE0
FC000007E0
FC000007E0
FC000007E0
FC000007E0
FC000007E0
FC000007E0
FC000007E0
FC000007E0
FC000007E0
FC000007E0
FC000007E0
FC000007E0
FC000007E0
FC000007E0
FC000007E0
FC000007E0
FC000007E0
FE00000FE0
7FFFFFFFC0
7FFFFFFFC0
3FFFFFFF80
1FFFFFFF00
07FFFFFC00
ENDCHAR
STARTCHAR 0070
ENCODING 112
SWIDTH 760 0
DWIDTH 38 0
BBX 36 29 2 0
BITMAP
FFFFFFFE00
FFFFFFFF80
FFFFFFFFC0
FFFFFFFFE0
FFFFFFFFE0
FC000007F0
FC000003F0
FC000003F0
FC000003F0
FC000003F0
FC000003F0
FC000007F0
FDFFFFFFE0
FDFFFFFFE0
FDFFFFFFC0
FDFFFFFF80
FDFFFFFE00
FC00000000
FC00000000
FC00000000
FC00000000
FC00000000
FC00000000
FC00000000
FC00000000
FC00000000
FC00000000
FC00000000
FC00000000
ENDCHAR
STARTCHAR 0071
ENCODING 113
SWIDTH 780 0
DWIDTH 39 0
BBX 35 34 2 -5
BITMAP
03FFFFF800
0FFFFFFE00
3FFFFFFF80
7FFFFFFFC0
7FFFFFFFC0
FE00000FE0
FC000007E0
FC000007E0
FC000007E0
FC000007E0
FC000007E0
FC000007E0
FC000007E0
FC000007E0
FC000007E0
FC000007E0
FC000007E0
FC000007E0
FC000007E0
FC01F807E0
FC01F807E0
FC01F807E0
FC01F807E0
FE01F80FE0
7FFFFFFFC0
7FFFFFFFC0
3FFFFFFF80
1FFFFFFF00
07FFFFFC00
0001F80000
0001F80000
0001F80000
0001F80000
0001F80000
ENDCHAR
STARTCHAR 0072
ENCODING 114
SWIDTH 780 0
DWIDTH 39 0
BBX 36 29 2 0
BITMAP
FFFFFFFC00
FFFFFFFF80
FFFFFFFFC0
FFFFFFFFE0
FFFFFFFFE0
FC000007F0
FC000003F0
FC000003F0
FC000003F0
FC000003F0
FC000003F0
FC000007F0
FDFFFFFFE0
FDFFFFFFC0
FDFFFFFF80
FDFFFFFFC0
FDFFFFFFE0
FC000007F0
FC000003F0
FC000003F0
FC000003F0
FC000003F0
FC000003F0
FC000003F0
FC000003F0
FC000003F0
FC000003F0
FC000003F0
FC000003F0
ENDCHAR
STARTCHAR 0073
ENCODING 115
SWIDTH 740 0
DWIDTH 37 0
BBX 34 29 2 0
BITMAP
03FFFFFFC0
0FFFFFFFC0
3FFFFFFFC0
7FFFFFFFC0
7FFFFFFFC0
FE00000000
FC00000000
FC00000000
FC00000000
FC00000000
FC00000000
FE00000000
7FFFFFF800
7FFFFFFE00
3FFFFFFF00
1FFFFFFF80
07FFFFFF80
0000001FC0
0000000FC0
0000000FC0
0000000FC0
0000000FC0
0000000FC0
0000001FC0
FFFFFFFF80
FFFFFFFF80
FFFFFFFF00
FFFFFFFC00
FFFFFFF000
ENDCHAR
STARTCHAR 0074
ENCODING 116
SWIDTH 740 0
DWIDTH 37 0
BBX 34 29 2 0
BITMAP
FFFFFFFFC0
FFFFFFFFC0
FFFFFFFFC0
FFFFFFFFC0
FFFFFFFFC0
0003F00000
0003F00000
0003F00000
0003F00000
0003F00000
0003F00000
0003F00000
0003F00000
0003F00000
0003F00000
0003F00000
0003F00000
0003F00000
0003F00000
0003F00000
0003F00000
0003F00000
0003F00000
0003F00000
0003F00000
0003F00000
0003F00000
0003F00000
0003F00000
ENDCHAR
STARTCHAR 0075
ENCODING 117
SWIDTH 780 0
DWIDTH 39 0
BBX 35 29 2 0
BITMAP
FC000007E0
FC000007E0
FC000007E0
FC000007E0
FC000007E0
FC000007E0
FC000007E0
FC000007E0
FC000007E0
FC000007E0
FC000007E0
FC000007E0
FC000007E0
FC000007E0
FC000007E0
FC000007E0
FC000007E0
FC000007E0
FC000007E0
FC000007E0
FC000007E0
FC000007E0
FC000007E0
FE00000FE0
7FFFFFFFC0
7FFFFFFFC0
3FFFFFFF80
1FFFFFFF00
07FFFFFC00
ENDCHAR
STARTCHAR 0076
ENCODING 118
SWIDTH 760 0
DWIDTH 38 0
BBX 35 29 0 0
BITMAP
F8000003E0
FC000003E0
7C000003E0
7C000007C0
7C000007C0
7E000007C0
3E00000FC0
3E00000F80
3E00000F80
3F00000F80
1F00001F80
1F00001F00
1F00001F00
1F80001F00
0F80003F00
0F80003E00
0F80003E00
07C0003E00
07C0007E00
07C0007C00
07C0007C00
03E000FC00
03E000F800
03F001F800
01FFFFF800
01FFFFF000
00FFFFE000
007FFFC000
001FFF0000
ENDCHAR
STARTCHAR 0077
ENCODING 119
SWIDTH 1000 0
DWIDTH 50 0
BBX 48 29 1 0
BITMAP
FC000FE0003F
FC003FF8003F
FC007FFC003F
FC00FFFE003F
FC00FFFE003F
FC01FC7F003F
FC01F83F003F
FC01F83F003F
FC01F83F003F
FC01F83F003F
FC01F83F003F
FC01F83F003F
FC01F83F003F
FC01F83F003F
FC01F83F003F
FC01F83F003F
FC01F83F003F
FC01F83F003F
FC01F83F003F
FC01F83F003F
FC01F83F003F
FC01F83F003F
FC01F83F003F
FE03F83F807F
7FFFF01FFFFE
7FFFF01FFFFE
3FFFE00FFFFC
1FFFC003FFF0
07FF0000FFC0
ENDCHAR
STARTCHAR 0078
ENCODING 120
SWIDTH 780 0
DWIDTH 39 0
BBX 35 29 2 0
BITMAP
FC000007E0
FC000007E0
FC000007E0
FC000007E0
FC000007E0
FC000007E0
FC000007E0
FC000007E0
FC000007E0
FC000007E0
FC000007E0
FE00000FE0
7FFFFFFFC0
7FFFFFFFC0
3FFFFFFF80
7FFFFFFFC0
7FFFFFFFC0
FE00000FE0
FC000007E0
FC000007E0
FC000007E0
FC000007E0
FC000007E0
FC000007E0
FC000007E0
FC000007E0
FC000007E0
FC000007E0
FC000007E0
ENDCHAR
STARTCHAR 0079
ENCODING 121
SWIDTH 780 0
DWIDTH 39 0
BBX 35 29 2 0
BITMAP
FC000007E0
FC000007E0
FC000007E0
FC000007E0
FC000007E0
FC000007E0
FC000007E0
FC000007E0
FC000007E0
FC000007E0
FC000007E0
FE000007E0
7FFFFFFFE0
7FFFFFFFE0
3FFFFFFFE0
1FFFFFFFE0
07FFFFFFE0
00000007E0
00000007E0
00000007E0
00000007E0
00000007E0
00000007E0
0000000FE0
7FFFFFFFC0
7FFFFFFFC0
7FFFFFFF80
7FFFFFFF00
7FFFFFFC00
ENDCHAR
STARTCHAR 007A
ENCODING 122
SWIDTH 760 0
DWIDTH 38 0
BBX 34 29 2 0
BITMAP
FFFFFFF000
FFFFFFFC00
FFFFFFFF00
FFFFFFFF80
FFFFFFFF80
0000001FC0
0000000FC0
0000000FC0
0000000FC0
0000000FC0
0000000FC0
0000001FC0
07FFFFFF80
1FFFFFFF80
3FFFFFFF00
7FFFFFFE00
7FFFFFF800
FE00000000
FC00000000
FC00000000
FC00000000
FC00000000
FC00000000
FE00000000
7FFFFFFFC0
7FFFFFFFC0
3FFFFFFFC0
0FFFFFFFC0
03FFFFFFC0
ENDCHAR
STARTCHAR 007B
ENCODING 123
SWIDTH 300 0
DWIDTH 15 0
BBX 12 39 2 -5
BITMAP
FFF0
FFF0
FFF0
FFF0
FFF0
FC00
FC00
FC00
FC00
FC00
FC00
FC00
FC00
FC00
FC00
FC00
FC00
FC00
FC00
FC00
FC00
FC00
FC00
FC00
FC00
FC00
FC00
FC00
FC00
FC00
FC00
FC00
FC00
FC00
FFF0
FFF0
FFF0
FFF0
FFF0
ENDCHAR
STARTCHAR 007C
ENCODING 124
SWIDTH 180 0
DWIDTH 9 0
BBX 6 37 2 -4
BITMAP
FC
FC
FC
FC
FC
FC
FC
FC
FC
FC
FC
FC
FC
FC
FC
FC
FC
FC
FC
FC
FC
FC
FC
FC
FC
FC
FC
FC
FC
FC
FC
FC
FC
FC
FC
FC
FC
ENDCHAR
STARTCHAR 007D
ENCODING 125
SWIDTH 340 0
DWIDTH 17 0
BBX 12 39 3 -5
BITMAP
FFF0
FFF0
FFF0
FFF0
FFF0
03F0
03F0
03F0
03F0
03F0
03F0
03F0
03F0
03F0
03F0
03F0
03F0
03F0
03F0
03F0
03F0
03F0
03F0
03F0
03F0
03F0
03F0
03F0
03F0
03F0
03F0
03F0
03F0
03F0
FFF0
FFF0
FFF0
FFF0
FFF0
ENDCHAR
STARTCHAR 007E
ENCODING 126
SWIDTH 620 0
DWIDTH 31 0
BBX 24 9 4 10
BITMAP
000008
07E01C
0FF83E
3FFC7F
7FFFFE
FFFFFC
FC3FF8
781FF0
3007C0
ENDCHAR
STARTCHAR 00A1
ENCODING 161
SWIDTH 180 0
DWIDTH 9 0
BBX 5 29 2 -8
BITMAP
70
F8
F8
F8
F8
70
00
00
F8
F8
F8
F8
F8
F8
F8
F8
F8
F8
F8
F8
F8
F8
F8
F8
F8
F8
F8
F8
F8
ENDCHAR
STARTCHAR 00A2
ENCODING 162
SWIDTH 580 0
DWIDTH 29 0
BBX 24 27 2 5
BITMAP
001F80
001F80
001F80
03FFFF
0FFFFF
1FFFFF
3FFFFF
7FFFFF
7F1F80
7E1F80
FC1F80
FC1F80
FC1F80
FC1F80
FC1F80
FC1F80
7E1F80
7E1F80
7FFFFF
3FFFFF
1FFFFF
0FFFFF
03FFFF
001F80
001F80
001F80
001F80
ENDCHAR
STARTCHAR 00A3
ENCODING 163
SWIDTH 740 0
DWIDTH 37 0
BBX 35 29 1 0
BITMAP
00FFFFFFE0
03FFFFFFE0
0FFFFFFFE0
0FFFFFFFE0
1FFFFFFFE0
3F80000000
3F00000000
3F00000000
3F00000000
3F00000000
3F00000000
3F00000000
FFFFFFFFE0
FFFFFFFFE0
FFFFFFFFE0
FFFFFFFFE0
FFFFFFFFE0
3F00000000
3F00000000
3F00000000
3F00000000
3F00000000
3F00000000
3F00000000
3FFFFFFFE0
3FFFFFFFE0
3FFFFFFFE0
3FFFFFFFE0
3FFFFFFFE0
ENDCHAR
STARTCHAR 00A4
ENCODING 164
SWIDTH 300 0
DWIDTH 15 0
BBX 0 0 0 0
BITMAP
ENDCHAR
STARTCHAR 00A5
ENCODING 165
SWIDTH 800 0
DWIDTH 40 0
BBX 35 29 2 0
BITMAP
FC000007E0
FC000007E0
FC000007E0
FC000007E0
FC000007E0
FC000007E0
FC000007E0
FC000007E0
FC000007E0
FC000007E0
FC000007E0
FE00000FE0
7FFFFFFFE0
7FFFFFFFC0
3FFFFFFF80
0FFFFFFF00
03FFFFFC00
0001F80000
0007FE0000
0007FE0000
0007FE0000
0007FE0000
0001F80000
0001F80000
0001F80000
0007FE0000
0007FE0000
0007FE0000
0007FE0000
ENDCHAR
STARTCHAR 00A6
ENCODING 166
SWIDTH 120 0
DWIDTH 6 0
BBX 2 46 2 -11
BITMAP
C0
C0
C0
C0
C0
C0
C0
C0
C0
C0
C0
C0
C0
C0
C0
C0
C0
C0
00
00
00
00
00
00
00
00
00
00
C0
C0
C0
C0
C0
C0
C0
C0
C0
C0
C0
C0
C0
C0
C0
C0
C0
C0
ENDCHAR
STARTCHAR 00A7
ENCODING 167
SWIDTH 300 0
DWIDTH 15 0
BBX 0 0 0 0
BITMAP
ENDCHAR
STARTCHAR 00A8
ENCODING 168
SWIDTH 500 0
DWIDTH 25 0
BBX 14 4 6 26
BITMAP
7070
F8F8
FCFC
7878
ENDCHAR
STARTCHAR 00A9
ENCODING 169
SWIDTH 640 0
DWIDTH 32 0
BBX 28 28 2 4
BITMAP
003FC000
01C07000
03001C00
06000600
0C000300
18000180
30FFF8C0
61FFF8C0
63FFF860
63000060
C3000060
C3000030
C3000030
C3000030
C3000030
C3000030
C3000030
C3000060
63000060
63FFF860
61FFF8C0
30FFF8C0
18000180
0C000300
06000600
03001C00
01C07000
003FC000
ENDCHAR
STARTCHAR 00AA
ENCODING 170
SWIDTH 300 0
DWIDTH 15 0
BBX 0 0 0 0
BITMAP
ENDCHAR
STARTCHAR 00AB
ENCODING 171
SWIDTH 300 0
DWIDTH 15 0
BBX 0 0 0 0
BITMAP
ENDCHAR
STARTCHAR 00AC
ENCODING 172
SWIDTH 300 0
DWIDTH 15 0
BBX 0 0 0 0
BITMAP
ENDCHAR
STARTCHAR 00AE
ENCODING 174
SWIDTH 640 0
DWIDTH 32 0
BBX 28 28 2 4
BITMAP
003FC000
01C07000
03001C00
06000600
0C000300
18000180
31FFF0C0
61FFF8C0
61FFFC60
61800C60
C1800C60
C1800C30
C1FFFC30
C1FFF830
C1FFF830
C1800C30
C1800C30
C1800C60
61800C60
61800C60
61800CC0
300000C0
18000180
0C000300
06000600
03001C00
01C07000
003FC000
ENDCHAR
STARTCHAR 00AF
ENCODING 175
SWIDTH 300 0
DWIDTH 15 0
BBX 0 0 0 0
BITMAP
ENDCHAR
STARTCHAR 00B0
ENCODING 176
SWIDTH 380 0
DWIDTH 19 0
BBX 15 15 2 19
BITMAP
07C0
1FF0
3838
701C
E00C
C00E
C006
C006
C006
C00E
E00C
601C
3838
1FF0
07C0
ENDCHAR
STARTCHAR 00B1
ENCODING 177
SWIDTH 300 0
DWIDTH 15 0
BBX 0 0 0 0
BITMAP
ENDCHAR
STARTCHAR 00B2
ENCODING 178
SWIDTH 300 0
DWIDTH 15 0
BBX 0 0 0 0
BITMAP
ENDCHAR
STARTCHAR 00B3
ENCODING 179
SWIDTH 300 0
DWIDTH 15 0
BBX 0 0 0 0
BITMAP
ENDCHAR
STARTCHAR 00B4
ENCODING 180
SWIDTH 400 0
DWIDTH 20 0
BBX 8 4 6 27
BITMAP
1F
3F
7E
FC
ENDCHAR
STARTCHAR 00B5
ENCODING 181
SWIDTH 300 0
DWIDTH 15 0
BBX 0 0 0 0
BITMAP
ENDCHAR
STARTCHAR 00B6
ENCODING 182
SWIDTH 540 0
DWIDTH 27 0
BBX 23 27 2 6
BITMAP
01FFFE
0FFC30
1FFC30
3FFC30
7FFC30
7FFC30
FFFC30
FFFC30
FFFC30
FFFC30
FFFC30
FFFC30
7FFC30
7FFC30
3FFC30
3FFC30
0FFC30
03FC30
000C30
000C30
000C30
000C30
000C30
000C30
000C30
000C30
000C30
ENDCHAR
STARTCHAR 00B7
ENCODING 183
SWIDTH 300 0
DWIDTH 15 0
BBX 0 0 0 0
BITMAP
ENDCHAR
STARTCHAR 00B8
ENCODING 184
SWIDTH 180 0
DWIDTH 9 0
BBX 9 10 0 -9
BITMAP
6000
7000
3E00
3F00
1F80
0180
0180
FF80
FF00
FE00
ENDCHAR
STARTCHAR 00B9
ENCODING 185
SWIDTH 300 0
DWIDTH 15 0
BBX 0 0 0 0
BITMAP
ENDCHAR
STARTCHAR 00BA
ENCODING 186
SWIDTH 340 0
DWIDTH 17 0
BBX 0 0 0 0
BITMAP
ENDCHAR
STARTCHAR 00BB
ENCODING 187
SWIDTH 300 0
DWIDTH 15 0
BBX 0 0 0 0
BITMAP
ENDCHAR
STARTCHAR 00BC
ENCODING 188
SWIDTH 300 0
DWIDTH 15 0
BBX 0 0 0 0
BITMAP
ENDCHAR
STARTCHAR 00BD
ENCODING 189
SWIDTH 300 0
DWIDTH 15 0
BBX 0 0 0 0
BITMAP
ENDCHAR
STARTCHAR 00BE
ENCODING 190
SWIDTH 300 0
DWIDTH 15 0
BBX 0 0 0 0
BITMAP
ENDCHAR
STARTCHAR 00BF
ENCODING 191
SWIDTH 780 0
DWIDTH 39 0
BBX 34 29 2 -8
BITMAP
0000000780
0000000FC0
0000000FC0
0000000FC0
0000000780
0000000000
0000000000
0000000000
0000000FC0
0000000FC0
0000000FC0
0000001FC0
07FFFFFF80
1FFFFFFF80
3FFFFFFF00
7FFFFFFE00
7FFFFFF800
FE00000000
FC00000000
FC00000000
FC00000000
FC00000000
FC00000000
FE00000000
7FFFFFFFC0
7FFFFFFFC0
3FFFFFFFC0
0FFFFFFFC0
03FFFFFFC0
ENDCHAR
STARTCHAR 00C0
ENCODING 192
SWIDTH 720 0
DWIDTH 36 0
BBX 35 38 0 0
BITMAP
0001F00000
0001F80000
0000FC0000
00007E0000
0000000000
0000000000
0000000000
0000000000
0000000000
001FFF0000
007FFFC000
00FFFFE000
01FFFFF000
01FFFFF800
03F003F800
03E001F800
03E000FC00
07C000FC00
07C000FC00
07C0007E00
0FC0007E00
0F8FFFFE00
0F8FFFFE00
0F8FFFFF00
1F8FFFFF00
1F1FFFFF00
1F00001F00
1F00001F80
3F00001F80
3E00001F80
3E00000F80
3E00000FC0
7E00000FC0
7C00000FC0
7C000007C0
7C000007E0
FC000007E0
F8000007E0
ENDCHAR
STARTCHAR 00C1
ENCODING 193
SWIDTH 720 0
DWIDTH 36 0
BBX 35 38 0 0
BITMAP
00003F0000
00007E0000
0000FC0000
0000F80000
0000000000
0000000000
0000000000
0000000000
0000000000
001FFF0000
007FFFC000
00FFFFE000
01FFFFF000
01FFFFF800
03F003F800
03E001F800
03E000FC00
07C000FC00
07C000FC00
07C0007E00
0FC0007E00
0F8FFFFE00
0F8FFFFE00
0F8FFFFF00
1F8FFFFF00
1F1FFFFF00
1F00001F00
1F00001F80
3F00001F80
3E00001F80
3E00000F80
3E00000FC0
7E00000FC0
7C00000FC0
7C000007C0
7C000007E0
FC000007E0
F8000007E0
ENDCHAR
STARTCHAR 00C2
ENCODING 194
SWIDTH 720 0
DWIDTH 36 0
BBX 35 38 0 0
BITMAP
0000F80000
0000FC0000
0001FE0000
0003DE0000
00038F0000
0007878000
000F038000
0000000000
0000000000
001FFF0000
007FFFC000
00FFFFE000
01FFFFF000
01FFFFF800
03F003F800
03E001F800
03E000FC00
07C000FC00
07C000FC00
07C0007E00
0FC0007E00
0F8FFFFE00
0F8FFFFE00
0F8FFFFF00
1F8FFFFF00
1F1FFFFF00
1F00001F00
1F00001F80
3F00001F80
3E00001F80
3E00000F80
3E00000FC0
7E00000FC0
7C00000FC0
7C000007C0
7C000007E0
FC000007E0
F8000007E0
ENDCHAR
STARTCHAR 00C3
ENCODING 195
SWIDTH 720 0
DWIDTH 36 0
BBX 35 38 0 0
BITMAP
0003F0C000
0007FFE000
000FFFF000
001FFFE000
003FFFC000
001E3F0000
0008000000
0000000000
0000000000
001FFF0000
007FFFC000
00FFFFE000
01FFFFF000
01FFFFF800
03F003F800
03E001F800
03E000FC00
07C000FC00
07C000FC00
07C0007E00
0FC0007E00
0F8FFFFE00
0F8FFFFE00
0F8FFFFF00
1F8FFFFF00
1F1FFFFF00
1F00001F00
1F00001F80
3F00001F80
3E00001F80
3E00000F80
3E00000FC0
7E00000FC0
7C00000FC0
7C000007C0
7C000007E0
FC000007E0
F8000007E0
ENDCHAR
STARTCHAR 00C4
ENCODING 196
SWIDTH 720 0
DWIDTH 36 0
BBX 35 38 0 0
BITMAP
000F0F0000
001F9F8000
001F9F8000
000F0F0000
0000000000
0000000000
0000000000
0000000000
0000000000
001FFF0000
007FFFC000
00FFFFE000
01FFFFF000
01FFFFF800
03F003F800
03E001F800
03E000FC00
07C000FC00
07C000FC00
07C0007E00
0FC0007E00
0F8FFFFE00
0F8FFFFE00
0F8FFFFF00
1F8FFFFF00
1F1FFFFF00
1F00001F00
1F00001F80
3F00001F80
3E00001F80
3E00000F80
3E00000FC0
7E00000FC0
7C00000FC0
7C000007C0
7C000007E0
FC000007E0
F8000007E0
ENDCHAR
STARTCHAR 00C5
ENCODING 197
SWIDTH 720 0
DWIDTH 36 0
BBX 35 40 0 0
BITMAP
0000F80000
0001FC0000
00038E0000
0003060000
0003060000
0003060000
00038E0000
0001FC0000
0000F80000
0000000000
0000000000
001FFF0000
007FFFC000
00FFFFE000
01FFFFF000
01FFFFF800
03F003F800
03E001F800
03E000FC00
07C000FC00
07C000FC00
07C0007E00
0FC0007E00
0F8FFFFE00
0F8FFFFE00
0F8FFFFF00
1F8FFFFF00
1F1FFFFF00
1F00001F00
1F00001F80
3F00001F80
3E00001F80
3E00000F80
3E00000FC0
7E00000FC0
7C00000FC0
7C000007C0
7C000007E0
FC000007E0
F8000007E0
ENDCHAR
STARTCHAR 00C6
ENCODING 198
SWIDTH 920 0
DWIDTH 46 0
BBX 43 29 1 0
BITMAP
001FE00FFFE0
007FF83FFFE0
00FFFC7FFFE0
01FFFEFFFFE0
01FFFFFFFFE0
03F03FFC0000
03E01FF80000
03E01FF00000
07E01FF00000
07C00FF00000
07C00FF00000
07C00FF00000
0FC7FFFFFFE0
0F8FFFFFFFE0
0F8FFFFFFFE0
0F8FFFFFFFE0
1F8FFFFFFFE0
1F0003F00000
1F0003F00000
1F0003F00000
3F0001F00000
3E0001F80000
3E0001F80000
3E0001F80000
7E0000FFFFE0
7C0000FFFFE0
7C00007FFFE0
7C00003FFFE0
FC00001FFFE0
ENDCHAR
STARTCHAR 00C7
ENCODING 199
SWIDTH 760 0
DWIDTH 38 0
BBX 34 38 2 -9
BITMAP
03FFFFFFC0
0FFFFFFFC0
3FFFFFFFC0
7FFFFFFFC0
7FFFFFFFC0
FE00000000
FC00000000
FC00000000
FC00000000
FC00000000
FC00000000
FC00000000
FC00000000
FC00000000
FC00000000
FC00000000
FC00000000
FC00000000
FC00000000
FC00000000
FC00000000
FC00000000
FC00000000
FE00000000
7FFFFFFFC0
7FFFFFFFC0
3FFFFFFFC0
1FFFFFFFC0
07FFFFFFC0
0000C00000
0000FC0000
00007E0000
00003F0000
0000030000
0000030000
0001FF0000
0001FE0000
0001FC0000
ENDCHAR
STARTCHAR 00C8
ENCODING 200
SWIDTH 740 0
DWIDTH 37 0
BBX 34 38 2 0
BITMAP
0003E00000
0003F00000
0001F80000
0000FC0000
0000000000
0000000000
0000000000
0000000000
0000000000
03FFFFFFC0
0FFFFFFFC0
3FFFFFFFC0
7FFFFFFFC0
7FFFFFFFC0
FE00000000
FC00000000
FC00000000
FC00000000
FC00000000
FC00000000
FC00000000
FFFFFFFFC0
FFFFFFFFC0
FFFFFFFFC0
FFFFFFFFC0
FFFFFFFFC0
FC00000000
FC00000000
FC00000000
FC00000000
FC00000000
FC00000000
FE00000000
7FFFFFFFC0
7FFFFFFFC0
3FFFFFFFC0
1FFFFFFFC0
07FFFFFFC0
ENDCHAR
STARTCHAR 00C9
ENCODING 201
SWIDTH 740 0
DWIDTH 37 0
BBX 34 38 2 0
BITMAP
00007E0000
0000FC0000
0001F80000
0001F00000
0000000000
0000000000
0000000000
0000000000
0000000000
03FFFFFFC0
0FFFFFFFC0
3FFFFFFFC0
7FFFFFFFC0
7FFFFFFFC0
FE00000000
FC00000000
FC00000000
FC00000000
FC00000000
FC00000000
FC00000000
FFFFFFFFC0
FFFFFFFFC0
FFFFFFFFC0
FFFFFFFFC0
FFFFFFFFC0
FC00000000
FC00000000
FC00000000
FC00000000
FC00000000
FC00000000
FE00000000
7FFFFFFFC0
7FFFFFFFC0
3FFFFFFFC0
1FFFFFFFC0
07FFFFFFC0
ENDCHAR
STARTCHAR 00CA
ENCODING 202
SWIDTH 740 0
DWIDTH 37 0
BBX 34 38 2 0
BITMAP
0001F00000
0001F80000
0003FC0000
0007BC0000
00071E0000
000F0F0000
001E070000
0000000000
0000000000
03FFFFFFC0
0FFFFFFFC0
3FFFFFFFC0
7FFFFFFFC0
7FFFFFFFC0
FE00000000
FC00000000
FC00000000
FC00000000
FC00000000
FC00000000
FC00000000
FFFFFFFFC0
FFFFFFFFC0
FFFFFFFFC0
FFFFFFFFC0
FFFFFFFFC0
FC00000000
FC00000000
FC00000000
FC00000000
FC00000000
FC00000000
FE00000000
7FFFFFFFC0
7FFFFFFFC0
3FFFFFFFC0
1FFFFFFFC0
07FFFFFFC0
ENDCHAR
STARTCHAR 00CB
ENCODING 203
SWIDTH 740 0
DWIDTH 37 0
BBX 34 39 2 0
BITMAP
000F0F0000
001F9F8000
001F9F8000
000F0F0000
0000000000
0000000000
0000000000
0000000000
0000000000
0000000000
03FFFFFFC0
0FFFFFFFC0
3FFFFFFFC0
7FFFFFFFC0
7FFFFFFFC0
FE00000000
FC00000000
FC00000000
FC00000000
FC00000000
FC00000000
FC00000000
FFFFFFFFC0
FFFFFFFFC0
FFFFFFFFC0
FFFFFFFFC0
FFFFFFFFC0
FC00000000
FC00000000
FC00000000
FC00000000
FC00000000
FC00000000
FE00000000
7FFFFFFFC0
7FFFFFFFC0
3FFFFFFFC0
1FFFFFFFC0
07FFFFFFC0
ENDCHAR
STARTCHAR 00CC
ENCODING 204
SWIDTH 180 0
DWIDTH 9 0
BBX 8 38 0 0
BITMAP
F8
FC
7E
3F
00
00
00
00
00
3F
3F
3F
3F
3F
3F
3F
3F
3F
3F
3F
3F
3F
3F
3F
3F
3F
3F
3F
3F
3F
3F
3F
3F
3F
3F
3F
3F
3F
ENDCHAR
STARTCHAR 00CD
ENCODING 205
SWIDTH 180 0
DWIDTH 9 0
BBX 9 38 2 0
BITMAP
1F80
3F00
7E00
7C00
0000
0000
0000
0000
0000
FC00
FC00
FC00
FC00
FC00
FC00
FC00
FC00
FC00
FC00
FC00
FC00
FC00
FC00
FC00
FC00
FC00
FC00
FC00
FC00
FC00
FC00
FC00
FC00
FC00
FC00
FC00
FC00
FC00
ENDCHAR
STARTCHAR 00CE
ENCODING 206
SWIDTH 180 0
DWIDTH 9 0
BBX 13 38 -3 0
BITMAP
0F80
0FC0
1FE0
3DE0
38F0
7878
F038
0000
0000
07E0
07E0
07E0
07E0
07E0
07E0
07E0
07E0
07E0
07E0
07E0
07E0
07E0
07E0
07E0
07E0
07E0
07E0
07E0
07E0
07E0
07E0
07E0
07E0
07E0
07E0
07E0
07E0
07E0
ENDCHAR
STARTCHAR 00CF
ENCODING 207
SWIDTH 180 0
DWIDTH 9 0
BBX 14 39 -3 0
BITMAP
7878
FCFC
FCFC
7878
0000
0000
0000
0000
0000
0000
07E0
07E0
07E0
07E0
07E0
07E0
07E0
07E0
07E0
07E0
07E0
07E0
07E0
07E0
07E0
07E0
07E0
07E0
07E0
07E0
07E0
07E0
07E0
07E0
07E0
07E0
07E0
07E0
07E0
ENDCHAR
STARTCHAR 00D0
ENCODING 208
SWIDTH 820 0
DWIDTH 41 0
BBX 37 29 3 0
BITMAP
7FFFFFFE00
7FFFFFFF80
7FFFFFFFC0
7FFFFFFFE0
7FFFFFFFF0
7E000007F0
7E000003F0
7E000001F8
7E000001F8
7E000001F8
7E000001F8
7E000001F8
FF800001F8
FF800001F8
FF800001F8
FF800001F8
FF800001F8
7E000001F8
7E000001F8
7E000001F8
7E000001F8
7E000001F8
7E000003F0
7E000003F0
7FFFFFFFF0
7FFFFFFFE0
7FFFFFFFC0
7FFFFFFF80
7FFFFFFE00
ENDCHAR
STARTCHAR 00D1
ENCODING 209
SWIDTH 780 0
DWIDTH 39 0
BBX 36 38 1 0
BITMAP
0003F0C000
0007FFE000
000FFFF000
001FFFE000
003FFFC000
001E3F0000
0008000000
0000000000
0000000000
03FE0003F0
1FFF8003F0
3FFFE003F0
7FFFF003F0
7FFFF003F0
FE03F803F0
FC01F803F0
FC01F803F0
FC01F803F0
FC01F803F0
FC01F803F0
FC01F803F0
FC01F803F0
FC01F803F0
FC01F803F0
FC01F803F0
FC01F803F0
FC01F803F0
FC01F803F0
FC01F803F0
FC01F803F0
FC01F803F0
FC01F803F0
FC01FC07F0
FC00FFFFE0
FC00FFFFE0
FC007FFFC0
FC003FFF80
FC000FFE00
ENDCHAR
STARTCHAR 00D2
ENCODING 210
SWIDTH 780 0
DWIDTH 39 0
BBX 35 38 2 0
BITMAP
0007C00000
0007E00000
0003F00000
0001F80000
0000000000
0000000000
0000000000
0000000000
0000000000
03FFFFF800
0FFFFFFE00
3FFFFFFF80
7FFFFFFFC0
7FFFFFFFC0
FE00000FE0
FC000007E0
FC000007E0
FC000007E0
FC000007E0
FC000007E0
FC000007E0
FC000007E0
FC000007E0
FC000007E0
FC000007E0
FC000007E0
FC000007E0
FC000007E0
FC000007E0
FC000007E0
FC000007E0
FC000007E0
FE00000FE0
7FFFFFFFC0
7FFFFFFFC0
3FFFFFFF80
1FFFFFFF00
07FFFFFC00
ENDCHAR
STARTCHAR 00D3
ENCODING 211
SWIDTH 780 0
DWIDTH 39 0
BBX 35 38 2 0
BITMAP
0000FC0000
0001F80000
0003F00000
0003E00000
0000000000
0000000000
0000000000
0000000000
0000000000
03FFFFF800
0FFFFFFE00
3FFFFFFF80
7FFFFFFFC0
7FFFFFFFC0
FE00000FE0
FC000007E0
FC000007E0
FC000007E0
FC000007E0
FC000007E0
FC000007E0
FC000007E0
FC000007E0
FC000007E0
FC000007E0
FC000007E0
FC000007E0
FC000007E0
FC000007E0
FC000007E0
FC000007E0
FC000007E0
FE00000FE0
7FFFFFFFC0
7FFFFFFFC0
3FFFFFFF80
1FFFFFFF00
07FFFFFC00
ENDCHAR
STARTCHAR 00D4
ENCODING 212
SWIDTH 780 0
DWIDTH 39 0
BBX 35 38 2 0
BITMAP
0003E00000
0003F00000
0007F80000
000F780000
000E3C0000
001E1E0000
003C0E0000
0000000000
0000000000
03FFFFF800
0FFFFFFE00
3FFFFFFF80
7FFFFFFFC0
7FFFFFFFC0
FE00000FE0
FC000007E0
FC000007E0
FC000007E0
FC000007E0
FC000007E0
FC000007E0
FC000007E0
FC000007E0
FC000007E0
FC000007E0
FC000007E0
FC000007E0
FC000007E0
FC000007E0
FC000007E0
FC000007E0
FC000007E0
FE00000FE0
7FFFFFFFC0
7FFFFFFFC0
3FFFFFFF80
1FFFFFFF00
07FFFFFC00
ENDCHAR
STARTCHAR 00D5
ENCODING 213
SWIDTH 780 0
DWIDTH 39 0
BBX 35 38 2 0
BITMAP
000FC30000
001FFF8000
003FFFC000
007FFF8000
00FFFF0000
0078FC0000
0020000000
0000000000
0000000000
03FFFFF800
0FFFFFFE00
3FFFFFFF80
7FFFFFFFC0
7FFFFFFFC0
FE00000FE0
FC000007E0
FC000007E0
FC000007E0
FC000007E0
FC000007E0
FC000007E0
FC000007E0
FC000007E0
FC000007E0
FC000007E0
FC000007E0
FC000007E0
FC000007E0
FC000007E0
FC000007E0
FC000007E0
FC000007E0
FE00000FE0
7FFFFFFFC0
7FFFFFFFC0
3FFFFFFF80
1FFFFFFF00
07FFFFFC00
ENDCHAR
STARTCHAR 00D6
ENCODING 214
SWIDTH 780 0
DWIDTH 39 0
BBX 35 39 2 0
BITMAP
000F0F0000
001F9F8000
001F9F8000
000F0F0000
0000000000
0000000000
0000000000
0000000000
0000000000
0000000000
03FFFFF800
0FFFFFFE00
3FFFFFFF80
7FFFFFFFC0
7FFFFFFFC0
FE00000FE0
FC000007E0
FC000007E0
FC000007E0
FC000007E0
FC000007E0
FC000007E0
FC000007E0
FC000007E0
FC000007E0
FC000007E0
FC000007E0
FC000007E0
FC000007E0
FC000007E0
FC000007E0
FC000007E0
FC000007E0
FE00000FE0
7FFFFFFFC0
7FFFFFFFC0
3FFFFFFF80
1FFFFFFF00
07FFFFFC00
ENDCHAR
STARTCHAR 00D7
ENCODING 215
SWIDTH 460 0
DWIDTH 23 0
BBX 20 20 1 6
BITMAP
400020
E00070
7000E0
3801C0
1C0380
0E0700
070E00
039C00
01F800
00F000
00F000
01F800
039C00
070E00
0E0700
1C0380
380180
7000C0
E00060
400020
ENDCHAR
STARTCHAR 00D8
ENCODING 216
SWIDTH 780 0
DWIDTH 39 0
BBX 35 29 3 0
BITMAP
03FFFFF800
0FFFFFFE00
3FFFFFFF80
7FFFFFFFC0
7FFFFFFFC0
FE000FCFE0
FC000FC7E0
FC000FC7E0
FC000FC7E0
FC000FC7E0
FC000FC7E0
FC001FC7E0
FC03FF87E0
FC1FFF87E0
FC3FFF07E0
FC7FFE07E0
FC7FF807E0
FCFE0007E0
FCFC0007E0
FCFC0007E0
FCFC0007E0
FCFC0007E0
FCFC0007E0
FEFC000FE0
7FFFFFFFC0
7FFFFFFFC0
3FFFFFFF80
1FFFFFFF00
07FFFFFC00
ENDCHAR
STARTCHAR 00D9
ENCODING 217
SWIDTH 780 0
DWIDTH 39 0
BBX 35 38 2 0
BITMAP
0007C00000
0007E00000
0003F00000
0001F80000
0000000000
0000000000
0000000000
0000000000
0000000000
FC000007E0
FC000007E0
FC000007E0
FC000007E0
FC000007E0
FC000007E0
FC000007E0
FC000007E0
FC000007E0
FC000007E0
FC000007E0
FC000007E0
FC000007E0
FC000007E0
FC000007E0
FC000007E0
FC000007E0
FC000007E0
FC000007E0
FC000007E0
FC000007E0
FC000007E0
FC000007E0
FE00000FE0
7FFFFFFFC0
7FFFFFFFC0
3FFFFFFF80
1FFFFFFF00
07FFFFFC00
ENDCHAR
STARTCHAR 00DA
ENCODING 218
SWIDTH 780 0
DWIDTH 39 0
BBX 35 38 2 0
BITMAP
00007E0000
0000FC0000
0001F80000
0001F00000
0000000000
0000000000
0000000000
0000000000
0000000000
FC000007E0
FC000007E0
FC000007E0
FC000007E0
FC000007E0
FC000007E0
FC000007E0
FC000007E0
FC000007E0
FC000007E0
FC000007E0
FC000007E0
FC000007E0
FC000007E0
FC000007E0
FC000007E0
FC000007E0
FC000007E0
FC000007E0
FC000007E0
FC000007E0
FC000007E0
FC000007E0
FE00000FE0
7FFFFFFFC0
7FFFFFFFC0
3FFFFFFF80
1FFFFFFF00
07FFFFFC00
ENDCHAR
STARTCHAR 00DB
ENCODING 219
SWIDTH 780 0
DWIDTH 39 0
BBX 35 38 2 0
BITMAP
0003E00000
0003F00000
0007F80000
000F780000
000E3C0000
001E1E0000
003C0E0000
0000000000
0000000000
FC000007E0
FC000007E0
FC000007E0
FC000007E0
FC000007E0
FC000007E0
FC000007E0
FC000007E0
FC000007E0
FC000007E0
FC000007E0
FC000007E0
FC000007E0
FC000007E0
FC000007E0
FC000007E0
FC000007E0
FC000007E0
FC000007E0
FC000007E0
FC000007E0
FC000007E0
FC000007E0
FE00000FE0
7FFFFFFFC0
7FFFFFFFC0
3FFFFFFF80
1FFFFFFF00
07FFFFFC00
ENDCHAR
STARTCHAR 00DC
ENCODING 220
SWIDTH 780 0
DWIDTH 39 0
BBX 35 38 2 0
BITMAP
003C3C0000
007E7E0000
007E7E0000
003C3C0000
0000000000
0000000000
0000000000
0000000000
0000000000
FC000007E0
FC000007E0
FC000007E0
FC000007E0
FC000007E0
FC000007E0
FC000007E0
FC000007E0
FC000007E0
FC000007E0
FC000007E0
FC000007E0
FC000007E0
FC000007E0
FC000007E0
FC000007E0
FC000007E0
FC000007E0
FC000007E0
FC000007E0
FC000007E0
FC000007E0
FC000007E0
FE00000FE0
7FFFFFFFC0
7FFFFFFFC0
3FFFFFFF80
1FFFFFFF00
07FFFFFC00
ENDCHAR
STARTCHAR 00DD
ENCODING 221
SWIDTH 780 0
DWIDTH 39 0
BBX 35 38 2 0
BITMAP
00007E0000
0000FC0000
0001F80000
0001F00000
0000000000
0000000000
0000000000
0000000000
0000000000
FC000007E0
FC000007E0
FC000007E0
FC000007E0
FC000007E0
FC000007E0
FC000007E0
FC000007E0
FC000007E0
FC000007E0
FC000007E0
FE00000FE0
7FFFFFFFC0
7FFFFFFFC0
3FFFFFFF80
1FFFFFFF00
07FFFFFC00
0001F80000
0001F80000
0001F80000
0001F80000
0001F80000
0001F80000
0001F80000
0001F80000
0001F80000
0001F80000
0001F80000
0001F80000
ENDCHAR
STARTCHAR 00DE
ENCODING 222
SWIDTH 300 0
DWIDTH 15 0
BBX 0 0 0 0
BITMAP
ENDCHAR
STARTCHAR 00DF
ENCODING 223
SWIDTH 780 0
DWIDTH 39 0
BBX 36 29 2 0
BITMAP
07FFFFFC00
1FFFFFFF00
3FFFFFFFC0
7FFFFFFFC0
7FFFFFFFE0
FE000007E0
FC000003F0
FC000003F0
FC000003F0
FC000003F0
FC000003F0
FC000007E0
FDFFFFFFE0
FDFFFFFFC0
FDFFFFFF80
FDFFFFFFC0
FDFFFFFFE0
FC000007E0
FC000003F0
FC000003F0
FC000003F0
FC000003F0
FC000003F0
FC000007E0
FDFFFFFFE0
FDFFFFFFC0
FDFFFFFFC0
FDFFFFFF00
FDFFFFFC00
ENDCHAR
STARTCHAR 00E0
ENCODING 224
SWIDTH 740 0
DWIDTH 37 0
BBX 34 38 2 0
BITMAP
0001F00000
0001F80000
0000FC0000
00007E0000
0000000000
0000000000
0000000000
0000000000
0000000000
FFFFFFF000
FFFFFFFC00
FFFFFFFF00
FFFFFFFF80
FFFFFFFF80
0000001FC0
0000000FC0
0000000FC0
0000000FC0
0000000FC0
0000000FC0
0000000FC0
03FFFFCFC0
0FFFFFCFC0
3FFFFFCFC0
7FFFFFCFC0
7FFFFFCFC0
FE00000FC0
FC00000FC0
FC00000FC0
FC00000FC0
FC00000FC0
FC00000FC0
FE00001FC0
7FFFFFFF80
7FFFFFFF80
3FFFFFFF00
1FFFFFFE00
07FFFFF800
ENDCHAR
STARTCHAR 00E1
ENCODING 225
SWIDTH 740 0
DWIDTH 37 0
BBX 34 38 2 0
BITMAP
0000FC0000
0001F80000
0003F00000
0003E00000
0000000000
0000000000
0000000000
0000000000
0000000000
FFFFFFF000
FFFFFFFC00
FFFFFFFF00
FFFFFFFF80
FFFFFFFF80
0000001FC0
0000000FC0
0000000FC0
0000000FC0
0000000FC0
0000000FC0
0000000FC0
03FFFFCFC0
0FFFFFCFC0
3FFFFFCFC0
7FFFFFCFC0
7FFFFFCFC0
FE00000FC0
FC00000FC0
FC00000FC0
FC00000FC0
FC00000FC0
FC00000FC0
FE00001FC0
7FFFFFFF80
7FFFFFFF80
3FFFFFFF00
1FFFFFFE00
07FFFFF800
ENDCHAR
STARTCHAR 00E2
ENCODING 226
SWIDTH 740 0
DWIDTH 37 0
BBX 34 38 2 0
BITMAP
0003E00000
0003F00000
0007F80000
000F780000
000E3C0000
001E1E0000
003C0E0000
0000000000
0000000000
FFFFFFF000
FFFFFFFC00
FFFFFFFF00
FFFFFFFF80
FFFFFFFF80
0000001FC0
0000000FC0
0000000FC0
0000000FC0
0000000FC0
0000000FC0
0000000FC0
03FFFFCFC0
0FFFFFCFC0
3FFFFFCFC0
7FFFFFCFC0
7FFFFFCFC0
FE00000FC0
FC00000FC0
FC00000FC0
FC00000FC0
FC00000FC0
FC00000FC0
FE00001FC0
7FFFFFFF80
7FFFFFFF80
3FFFFFFF00
1FFFFFFE00
07FFFFF800
ENDCHAR
STARTCHAR 00E3
ENCODING 227
SWIDTH 740 0
DWIDTH 37 0
BBX 34 38 2 0
BITMAP
000FC30000
001FFF8000
003FFFC000
007FFF8000
00FFFF0000
0078FC0000
0020000000
0000000000
0000000000
FFFFFFF000
FFFFFFFC00
FFFFFFFF00
FFFFFFFF80
FFFFFFFF80
0000001FC0
0000000FC0
0000000FC0
0000000FC0
0000000FC0
0000000FC0
0000000FC0
03FFFFCFC0
0FFFFFCFC0
3FFFFFCFC0
7FFFFFCFC0
7FFFFFCFC0
FE00000FC0
FC00000FC0
FC00000FC0
FC00000FC0
FC00000FC0
FC00000FC0
FE00001FC0
7FFFFFFF80
7FFFFFFF80
3FFFFFFF00
1FFFFFFE00
07FFFFF800
ENDCHAR
STARTCHAR 00E4
ENCODING 228
SWIDTH 740 0
DWIDTH 37 0
BBX 34 37 2 0
BITMAP
000F0F0000
001F9F8000
001F9F8000
000F0F0000
0000000000
0000000000
0000000000
0000000000
FFFFFFF000
FFFFFFFC00
FFFFFFFF00
FFFFFFFF80
FFFFFFFF80
0000001FC0
0000000FC0
0000000FC0
0000000FC0
0000000FC0
0000000FC0
0000000FC0
03FFFFCFC0
0FFFFFCFC0
3FFFFFCFC0
7FFFFFCFC0
7FFFFFCFC0
FE00000FC0
FC00000FC0
FC00000FC0
FC00000FC0
FC00000FC0
FC00000FC0
FE00001FC0
7FFFFFFF80
7FFFFFFF80
3FFFFFFF00
1FFFFFFE00
07FFFFF800
ENDCHAR
STARTCHAR 00E5
ENCODING 229
SWIDTH 740 0
DWIDTH 37 0
BBX 34 39 2 0
BITMAP
0001F00000
0003F80000
00071C0000
00060C0000
00060C0000
00060C0000
00071C0000
0003F80000
0001F00000
0000000000
FFFFFFF000
FFFFFFFC00
FFFFFFFF00
FFFFFFFF80
FFFFFFFF80
0000001FC0
0000000FC0
0000000FC0
0000000FC0
0000000FC0
0000000FC0
0000000FC0
03FFFFCFC0
0FFFFFCFC0
3FFFFFCFC0
7FFFFFCFC0
7FFFFFCFC0
FE00000FC0
FC00000FC0
FC00000FC0
FC00000FC0
FC00000FC0
FC00000FC0
FE00001FC0
7FFFFFFF80
7FFFFFFF80
3FFFFFFF00
1FFFFFFE00
07FFFFF800
ENDCHAR
STARTCHAR 00E6
ENCODING 230
SWIDTH 920 0
DWIDTH 46 0
BBX 44 29 1 0
BITMAP
7FFFE07FFE00
7FFFF9FFFF80
7FFFFFFFFFC0
7FFFFFFFFFE0
7FFFFFFFFFE0
00003FC007F0
00001F8003F0
00001F8003F0
00001F8003F0
00001F8003F0
00001F8003F0
00001F8007F0
03FF1F9FFFE0
0FFF1F9FFFE0
3FFF1F9FFFC0
3FFF1F9FFF00
7FFF1F9FFC00
FE001F800000
FC001F800000
FC001F800000
FC001F800000
FC001F800000
FC001F800000
FE003FC00000
7FFFFFFFFFE0
7FFFFFFFFFE0
3FFFFFFFFFE0
1FFFFBFFFFE0
03FFE0FFFFE0
ENDCHAR
STARTCHAR 00E7
ENCODING 231
SWIDTH 760 0
DWIDTH 38 0
BBX 34 38 2 -9
BITMAP
03FFFFFFC0
0FFFFFFFC0
3FFFFFFFC0
7FFFFFFFC0
7FFFFFFFC0
FE00000000
FC00000000
FC00000000
FC00000000
FC00000000
FC00000000
FC00000000
FC00000000
FC00000000
FC00000000
FC00000000
FC00000000
FC00000000
FC00000000
FC00000000
FC00000000
FC00000000
FC00000000
FE00000000
7FFFFFFFC0
7FFFFFFFC0
3FFFFFFFC0
1FFFFFFFC0
07FFFFFFC0
0000C00000
0000FC0000
00007E0000
00003F0000
0000030000
0000030000
0001FF0000
0001FE0000
0001FC0000
ENDCHAR
STARTCHAR 00E8
ENCODING 232
SWIDTH 740 0
DWIDTH 37 0
BBX 34 38 1 0
BITMAP
0003E00000
0003F00000
0001F80000
0000FC0000
0000000000
0000000000
0000000000
0000000000
0000000000
07FFFFF800
1FFFFFFE00
3FFFFFFF00
7FFFFFFF80
7FFFFFFF80
FE00001FC0
FC00000FC0
FC00000FC0
FC00000FC0
FC00000FC0
FC00000FC0
FC00001FC0
FCFFFFFF80
FCFFFFFF80
FCFFFFFF00
FCFFFFFC00
FCFFFFF000
FC00000000
FC00000000
FC00000000
FC00000000
FC00000000
FC00000000
FE00000000
7FFFFFFFC0
7FFFFFFFC0
3FFFFFFFC0
0FFFFFFFC0
03FFFFFFC0
ENDCHAR
STARTCHAR 00E9
ENCODING 233
SWIDTH 740 0
DWIDTH 37 0
BBX 34 38 1 0
BITMAP
00007E0000
0000FC0000
0001F80000
0001F00000
0000000000
0000000000
0000000000
0000000000
0000000000
07FFFFF800
1FFFFFFE00
3FFFFFFF00
7FFFFFFF80
7FFFFFFF80
FE00001FC0
FC00000FC0
FC00000FC0
FC00000FC0
FC00000FC0
FC00000FC0
FC00001FC0
FCFFFFFF80
FCFFFFFF80
FCFFFFFF00
FCFFFFFC00
FCFFFFF000
FC00000000
FC00000000
FC00000000
FC00000000
FC00000000
FC00000000
FE00000000
7FFFFFFFC0
7FFFFFFFC0
3FFFFFFFC0
0FFFFFFFC0
03FFFFFFC0
ENDCHAR
STARTCHAR 00EA
ENCODING 234
SWIDTH 740 0
DWIDTH 37 0
BBX 34 38 1 0
BITMAP
0001F00000
0001F80000
0003FC0000
0007BC0000
00071E0000
000F0F0000
001E070000
0000000000
0000000000
07FFFFF800
1FFFFFFE00
3FFFFFFF00
7FFFFFFF80
7FFFFFFF80
FE00001FC0
FC00000FC0
FC00000FC0
FC00000FC0
FC00000FC0
FC00000FC0
FC00001FC0
FCFFFFFF80
FCFFFFFF80
FCFFFFFF00
FCFFFFFC00
FCFFFFF000
FC00000000
FC00000000
FC00000000
FC00000000
FC00000000
FC00000000
FE00000000
7FFFFFFFC0
7FFFFFFFC0
3FFFFFFFC0
0FFFFFFFC0
03FFFFFFC0
ENDCHAR
STARTCHAR 00EB
ENCODING 235
SWIDTH 740 0
DWIDTH 37 0
BBX 34 38 1 0
BITMAP
000F0F0000
001F9F8000
001F9F8000
000F0F0000
0000000000
0000000000
0000000000
0000000000
0000000000
07FFFFF800
1FFFFFFE00
3FFFFFFF00
7FFFFFFF80
7FFFFFFF80
FE00001FC0
FC00000FC0
FC00000FC0
FC00000FC0
FC00000FC0
FC00000FC0
FC00001FC0
FCFFFFFF80
FCFFFFFF80
FCFFFFFF00
FCFFFFFC00
FCFFFFF000
FC00000000
FC00000000
FC00000000
FC00000000
FC00000000
FC00000000
FE00000000
7FFFFFFFC0
7FFFFFFFC0
3FFFFFFFC0
0FFFFFFFC0
03FFFFFFC0
ENDCHAR
STARTCHAR 00EC
ENCODING 236
SWIDTH 180 0
DWIDTH 9 0
BBX 8 38 0 0
BITMAP
F8
FC
7E
3F
00
00
00
00
00
3F
3F
3F
3F
3F
3F
3F
3F
3F
3F
3F
3F
3F
3F
3F
3F
3F
3F
3F
3F
3F
3F
3F
3F
3F
3F
3F
3F
3F
ENDCHAR
STARTCHAR 00ED
ENCODING 237
SWIDTH 180 0
DWIDTH 9 0
BBX 9 38 2 0
BITMAP
1F80
3F00
7E00
7C00
0000
0000
0000
0000
0000
FC00
FC00
FC00
FC00
FC00
FC00
FC00
FC00
FC00
FC00
FC00
FC00
FC00
FC00
FC00
FC00
FC00
FC00
FC00
FC00
FC00
FC00
FC00
FC00
FC00
FC00
FC00
FC00
FC00
ENDCHAR
STARTCHAR 00EE
ENCODING 238
SWIDTH 180 0
DWIDTH 9 0
BBX 13 38 -3 0
BITMAP
0F80
0FC0
1FE0
3DE0
38F0
7878
F038
0000
0000
07E0
07E0
07E0
07E0
07E0
07E0
07E0
07E0
07E0
07E0
07E0
07E0
07E0
07E0
07E0
07E0
07E0
07E0
07E0
07E0
07E0
07E0
07E0
07E0
07E0
07E0
07E0
07E0
07E0
ENDCHAR
STARTCHAR 00EF
ENCODING 239
SWIDTH 180 0
DWIDTH 9 0
BBX 14 39 -3 0
BITMAP
7878
FCFC
FCFC
7878
0000
0000
0000
0000
0000
0000
07E0
07E0
07E0
07E0
07E0
07E0
07E0
07E0
07E0
07E0
07E0
07E0
07E0
07E0
07E0
07E0
07E0
07E0
07E0
07E0
07E0
07E0
07E0
07E0
07E0
07E0
07E0
07E0
07E0
ENDCHAR
STARTCHAR 00F0
ENCODING 240
SWIDTH 300 0
DWIDTH 15 0
BBX 0 0 0 0
BITMAP
ENDCHAR
STARTCHAR 00F1
ENCODING 241
SWIDTH 780 0
DWIDTH 39 0
BBX 36 38 1 0
BITMAP
0003F0C000
0007FFE000
000FFFF000
001FFFE000
003FFFC000
001E3F0000
0008000000
0000000000
0000000000
03FE0003F0
1FFF8003F0
3FFFE003F0
7FFFF003F0
7FFFF003F0
FE03F803F0
FC01F803F0
FC01F803F0
FC01F803F0
FC01F803F0
FC01F803F0
FC01F803F0
FC01F803F0
FC01F803F0
FC01F803F0
FC01F803F0
FC01F803F0
FC01F803F0
FC01F803F0
FC01F803F0
FC01F803F0
FC01F803F0
FC01F803F0
FC01FC07F0
FC00FFFFE0
FC00FFFFE0
FC007FFFC0
FC003FFF80
FC000FFE00
ENDCHAR
STARTCHAR 00F2
ENCODING 242
SWIDTH 780 0
DWIDTH 39 0
BBX 35 38 2 0
BITMAP
0007C00000
0007E00000
0003F00000
0001F80000
0000000000
0000000000
0000000000
0000000000
0000000000
03FFFFF800
0FFFFFFE00
3FFFFFFF80
7FFFFFFFC0
7FFFFFFFC0
FE00000FE0
FC000007E0
FC000007E0
FC000007E0
FC000007E0
FC000007E0
FC000007E0
FC000007E0
FC000007E0
FC000007E0
FC000007E0
FC000007E0
FC000007E0
FC000007E0
FC000007E0
FC000007E0
FC000007E0
FC000007E0
FE00000FE0
7FFFFFFFC0
7FFFFFFFC0
3FFFFFFF80
1FFFFFFF00
07FFFFFC00
ENDCHAR
STARTCHAR 00F3
ENCODING 243
SWIDTH 780 0
DWIDTH 39 0
BBX 35 38 2 0
BITMAP
0000FC0000
0001F80000
0003F00000
0003E00000
0000000000
0000000000
0000000000
0000000000
0000000000
03FFFFF800
0FFFFFFE00
3FFFFFFF80
7FFFFFFFC0
7FFFFFFFC0
FE00000FE0
FC000007E0
FC000007E0
FC000007E0
FC000007E0
FC000007E0
FC000007E0
FC000007E0
FC000007E0
FC000007E0
FC000007E0
FC000007E0
FC000007E0
FC000007E0
FC000007E0
FC000007E0
FC000007E0
FC000007E0
FE00000FE0
7FFFFFFFC0
7FFFFFFFC0
3FFFFFFF80
1FFFFFFF00
07FFFFFC00
ENDCHAR
STARTCHAR 00F4
ENCODING 244
SWIDTH 780 0
DWIDTH 39 0
BBX 35 38 2 0
BITMAP
0003E00000
0003F00000
0007F80000
000F780000
000E3C0000
001E1E0000
003C0E0000
0000000000
0000000000
03FFFFF800
0FFFFFFE00
3FFFFFFF80
7FFFFFFFC0
7FFFFFFFC0
FE00000FE0
FC000007E0
FC000007E0
FC000007E0
FC000007E0
FC000007E0
FC000007E0
FC000007E0
FC000007E0
FC000007E0
FC000007E0
FC000007E0
FC000007E0
FC000007E0
FC000007E0
FC000007E0
FC000007E0
FC000007E0
FE00000FE0
7FFFFFFFC0
7FFFFFFFC0
3FFFFFFF80
1FFFFFFF00
07FFFFFC00
ENDCHAR
STARTCHAR 00F5
ENCODING 245
SWIDTH 780 0
DWIDTH 39 0
BBX 35 38 2 0
BITMAP
000FC30000
001FFF8000
003FFFC000
007FFF8000
00FFFF0000
0078FC0000
0020000000
0000000000
0000000000
03FFFFF800
0FFFFFFE00
3FFFFFFF80
7FFFFFFFC0
7FFFFFFFC0
FE00000FE0
FC000007E0
FC000007E0
FC000007E0
FC000007E0
FC000007E0
FC000007E0
FC000007E0
FC000007E0
FC000007E0
FC000007E0
FC000007E0
FC000007E0
FC000007E0
FC000007E0
FC000007E0
FC000007E0
FC000007E0
FE00000FE0
7FFFFFFFC0
7FFFFFFFC0
3FFFFFFF80
1FFFFFFF00
07FFFFFC00
ENDCHAR
STARTCHAR 00F6
ENCODING 246
SWIDTH 780 0
DWIDTH 39 0
BBX 35 39 2 0
BITMAP
000F0F0000
001F9F8000
001F9F8000
000F0F0000
0000000000
0000000000
0000000000
0000000000
0000000000
0000000000
03FFFFF800
0FFFFFFE00
3FFFFFFF80
7FFFFFFFC0
7FFFFFFFC0
FE00000FE0
FC000007E0
FC000007E0
FC000007E0
FC000007E0
FC000007E0
FC000007E0
FC000007E0
FC000007E0
FC000007E0
FC000007E0
FC000007E0
FC000007E0
FC000007E0
FC000007E0
FC000007E0
FC000007E0
FC000007E0
FE00000FE0
7FFFFFFFC0
7FFFFFFFC0
3FFFFFFF80
1FFFFFFF00
07FFFFFC00
ENDCHAR
STARTCHAR 00F7
ENCODING 247
SWIDTH 360 0
DWIDTH 18 0
BBX 12 24 3 7
BITMAP
1E00
3F00
3F00
3F00
3F00
1E00
0000
0000
0000
0000
FFF0
FFF0
FFF0
FFF0
FFF0
0000
0000
0000
1E00
3F00
3F00
3F00
3F00
1E00
ENDCHAR
STARTCHAR 00F8
ENCODING 248
SWIDTH 780 0
DWIDTH 39 0
BBX 35 29 3 0
BITMAP
03FFFFF800
0FFFFFFE00
3FFFFFFF80
7FFFFFFFC0
7FFFFFFFC0
FE000FCFE0
FC000FC7E0
FC000FC7E0
FC000FC7E0
FC000FC7E0
FC000FC7E0
FC001FC7E0
FC03FF87E0
FC1FFF87E0
FC3FFF07E0
FC7FFE07E0
FC7FF807E0
FCFE0007E0
FCFC0007E0
FCFC0007E0
FCFC0007E0
FCFC0007E0
FCFC0007E0
FEFC000FE0
7FFFFFFFC0
7FFFFFFFC0
3FFFFFFF80
1FFFFFFF00
07FFFFFC00
ENDCHAR
STARTCHAR 00F9
ENCODING 249
SWIDTH 780 0
DWIDTH 39 0
BBX 35 38 2 0
BITMAP
0007C00000
0007E00000
0003F00000
0001F80000
0000000000
0000000000
0000000000
0000000000
0000000000
FC000007E0
FC000007E0
FC000007E0
FC000007E0
FC000007E0
FC000007E0
FC000007E0
FC000007E0
FC000007E0
FC000007E0
FC000007E0
FC000007E0
FC000007E0
FC000007E0
FC000007E0
FC000007E0
FC000007E0
FC000007E0
FC000007E0
FC000007E0
FC000007E0
FC000007E0
FC000007E0
FE00000FE0
7FFFFFFFC0
7FFFFFFFC0
3FFFFFFF80
1FFFFFFF00
07FFFFFC00
ENDCHAR
STARTCHAR 00FA
ENCODING 250
SWIDTH 780 0
DWIDTH 39 0
BBX 35 38 2 0
BITMAP
00007E0000
0000FC0000
0001F80000
0001F00000
0000000000
0000000000
0000000000
0000000000
0000000000
FC000007E0
FC000007E0
FC000007E0
FC000007E0
FC000007E0
FC000007E0
FC000007E0
FC000007E0
FC000007E0
FC000007E0
FC000007E0
FC000007E0
FC000007E0
FC000007E0
FC000007E0
FC000007E0
FC000007E0
FC000007E0
FC000007E0
FC000007E0
FC000007E0
FC000007E0
FC000007E0
FE00000FE0
7FFFFFFFC0
7FFFFFFFC0
3FFFFFFF80
1FFFFFFF00
07FFFFFC00
ENDCHAR
STARTCHAR 00FB
ENCODING 251
SWIDTH 780 0
DWIDTH 39 0
BBX 35 38 2 0
BITMAP
0003E00000
0003F00000
0007F80000
000F780000
000E3C0000
001E1E0000
003C0E0000
0000000000
0000000000
FC000007E0
FC000007E0
FC000007E0
FC000007E0
FC000007E0
FC000007E0
FC000007E0
FC000007E0
FC000007E0
FC000007E0
FC000007E0
FC000007E0
FC000007E0
FC000007E0
FC000007E0
FC000007E0
FC000007E0
FC000007E0
FC000007E0
FC000007E0
FC000007E0
FC000007E0
FC000007E0
FE00000FE0
7FFFFFFFC0
7FFFFFFFC0
3FFFFFFF80
1FFFFFFF00
07FFFFFC00
ENDCHAR
STARTCHAR 00FC
ENCODING 252
SWIDTH 780 0
DWIDTH 39 0
BBX 35 38 2 0
BITMAP
003C3C0000
007E7E0000
007E7E0000
003C3C0000
0000000000
0000000000
0000000000
0000000000
0000000000
FC000007E0
FC000007E0
FC000007E0
FC000007E0
FC000007E0
FC000007E0
FC000007E0
FC000007E0
FC000007E0
FC000007E0
FC000007E0
FC000007E0
FC000007E0
FC000007E0
FC000007E0
FC000007E0
FC000007E0
FC000007E0
FC000007E0
FC000007E0
FC000007E0
FC000007E0
FC000007E0
FE00000FE0
7FFFFFFFC0
7FFFFFFFC0
3FFFFFFF80
1FFFFFFF00
07FFFFFC00
ENDCHAR
STARTCHAR 00FD
ENCODING 253
SWIDTH 780 0
DWIDTH 39 0
BBX 35 38 2 0
BITMAP
00007E0000
0000FC0000
0001F80000
0001F00000
0000000000
0000000000
0000000000
0000000000
0000000000
FC000007E0
FC000007E0
FC000007E0
FC000007E0
FC000007E0
FC000007E0
FC000007E0
FC000007E0
FC000007E0
FC000007E0
FC000007E0
FE00000FE0
7FFFFFFFC0
7FFFFFFFC0
3FFFFFFF80
1FFFFFFF00
07FFFFFC00
0001F80000
0001F80000
0001F80000
0001F80000
0001F80000
0001F80000
0001F80000
0001F80000
0001F80000
0001F80000
0001F80000
0001F80000
ENDCHAR
STARTCHAR 00FE
ENCODING 254
SWIDTH 300 0
DWIDTH 15 0
BBX 0 0 0 0
BITMAP
ENDCHAR
STARTCHAR 00FF
ENCODING 255
SWIDTH 780 0
DWIDTH 39 0
BBX 35 38 2 0
BITMAP
001E1E0000
003F3F0000
003F3F0000
001E1E0000
0000000000
0000000000
0000000000
0000000000
0000000000
FC000007E0
FC000007E0
FC000007E0
FC000007E0
FC000007E0
FC000007E0
FC000007E0
FC000007E0
FC000007E0
FC000007E0
FC000007E0
FE000007E0
7FFFFFFFE0
7FFFFFFFE0
3FFFFFFFE0
1FFFFFFFE0
07FFFFFFE0
00000007E0
00000007E0
00000007E0
00000007E0
00000007E0
00000007E0
0000000FE0
7FFFFFFFC0
7FFFFFFFC0
7FFFFFFF80
7FFFFFFF00
7FFFFFFC00
ENDCHAR
STARTCHAR 0100
ENCODING 256
SWIDTH 300 0
DWIDTH 15 0
BBX 0 0 0 0
BITMAP
ENDCHAR
STARTCHAR 0101
ENCODING 257
SWIDTH 300 0
DWIDTH 15 0
BBX 0 0 0 0
BITMAP
ENDCHAR
STARTCHAR 0102
ENCODING 258
SWIDTH 300 0
DWIDTH 15 0
BBX 0 0 0 0
BITMAP
ENDCHAR
STARTCHAR 0103
ENCODING 259
SWIDTH 300 0
DWIDTH 15 0
BBX 0 0 0 0
BITMAP
ENDCHAR
STARTCHAR 0104
ENCODING 260
SWIDTH 300 0
DWIDTH 15 0
BBX 0 0 0 0
BITMAP
ENDCHAR
STARTCHAR 0105
ENCODING 261
SWIDTH 300 0
DWIDTH 15 0
BBX 0 0 0 0
BITMAP
ENDCHAR
STARTCHAR 0106
ENCODING 262
SWIDTH 300 0
DWIDTH 15 0
BBX 0 0 0 0
BITMAP
ENDCHAR
STARTCHAR 0107
ENCODING 263
SWIDTH 300 0
DWIDTH 15 0
BBX 0 0 0 0
BITMAP
ENDCHAR
STARTCHAR 0108
ENCODING 264
SWIDTH 300 0
DWIDTH 15 0
BBX 0 0 0 0
BITMAP
ENDCHAR
STARTCHAR 0109
ENCODING 265
SWIDTH 300 0
DWIDTH 15 0
BBX 0 0 0 0
BITMAP
ENDCHAR
STARTCHAR 010A
ENCODING 266
SWIDTH 300 0
DWIDTH 15 0
BBX 0 0 0 0
BITMAP
ENDCHAR
STARTCHAR 010B
ENCODING 267
SWIDTH 300 0
DWIDTH 15 0
BBX 0 0 0 0
BITMAP
ENDCHAR
STARTCHAR 010C
ENCODING 268
SWIDTH 300 0
DWIDTH 15 0
BBX 0 0 0 0
BITMAP
ENDCHAR
STARTCHAR 010D
ENCODING 269
SWIDTH 300 0
DWIDTH 15 0
BBX 0 0 0 0
BITMAP
ENDCHAR
STARTCHAR 010E
ENCODING 270
SWIDTH 300 0
DWIDTH 15 0
BBX 0 0 0 0
BITMAP
ENDCHAR
STARTCHAR 010F
ENCODING 271
SWIDTH 300 0
DWIDTH 15 0
BBX 0 0 0 0
BITMAP
ENDCHAR
STARTCHAR 0110
ENCODING 272
SWIDTH 300 0
DWIDTH 15 0
BBX 0 0 0 0
BITMAP
ENDCHAR
STARTCHAR 0111
ENCODING 273
SWIDTH 300 0
DWIDTH 15 0
BBX 0 0 0 0
BITMAP
ENDCHAR
STARTCHAR 0112
ENCODING 274
SWIDTH 300 0
DWIDTH 15 0
BBX 0 0 0 0
BITMAP
ENDCHAR
STARTCHAR 0113
ENCODING 275
SWIDTH 300 0
DWIDTH 15 0
BBX 0 0 0 0
BITMAP
ENDCHAR
STARTCHAR 0114
ENCODING 276
SWIDTH 300 0
DWIDTH 15 0
BBX 0 0 0 0
BITMAP
ENDCHAR
STARTCHAR 0115
ENCODING 277
SWIDTH 300 0
DWIDTH 15 0
BBX 0 0 0 0
BITMAP
ENDCHAR
STARTCHAR 0116
ENCODING 278
SWIDTH 300 0
DWIDTH 15 0
BBX 0 0 0 0
BITMAP
ENDCHAR
STARTCHAR 0117
ENCODING 279
SWIDTH 300 0
DWIDTH 15 0
BBX 0 0 0 0
BITMAP
ENDCHAR
STARTCHAR 0118
ENCODING 280
SWIDTH 300 0
DWIDTH 15 0
BBX 0 0 0 0
BITMAP
ENDCHAR
STARTCHAR 0119
ENCODING 281
SWIDTH 300 0
DWIDTH 15 0
BBX 0 0 0 0
BITMAP
ENDCHAR
STARTCHAR 011A
ENCODING 282
SWIDTH 300 0
DWIDTH 15 0
BBX 0 0 0 0
BITMAP
ENDCHAR
STARTCHAR 011B
ENCODING 283
SWIDTH 300 0
DWIDTH 15 0
BBX 0 0 0 0
BITMAP
ENDCHAR
STARTCHAR 011C
ENCODING 284
SWIDTH 300 0
DWIDTH 15 0
BBX 0 0 0 0
BITMAP
ENDCHAR
STARTCHAR 011D
ENCODING 285
SWIDTH 300 0
DWIDTH 15 0
BBX 0 0 0 0
BITMAP
ENDCHAR
STARTCHAR 011E
ENCODING 286
SWIDTH 300 0
DWIDTH 15 0
BBX 0 0 0 0
BITMAP
ENDCHAR
STARTCHAR 011F
ENCODING 287
SWIDTH 300 0
DWIDTH 15 0
BBX 0 0 0 0
BITMAP
ENDCHAR
STARTCHAR 0120
ENCODING 288
SWIDTH 300 0
DWIDTH 15 0
BBX 0 0 0 0
BITMAP
ENDCHAR
STARTCHAR 0121
ENCODING 289
SWIDTH 300 0
DWIDTH 15 0
BBX 0 0 0 0
BITMAP
ENDCHAR
STARTCHAR 0122
ENCODING 290
SWIDTH 300 0
DWIDTH 15 0
BBX 0 0 0 0
BITMAP
ENDCHAR
STARTCHAR 0123
ENCODING 291
SWIDTH 300 0
DWIDTH 15 0
BBX 0 0 0 0
BITMAP
ENDCHAR
STARTCHAR 0124
ENCODING 292
SWIDTH 300 0
DWIDTH 15 0
BBX 0 0 0 0
BITMAP
ENDCHAR
STARTCHAR 0125
ENCODING 293
SWIDTH 300 0
DWIDTH 15 0
BBX 0 0 0 0
BITMAP
ENDCHAR
STARTCHAR 0126
ENCODING 294
SWIDTH 300 0
DWIDTH 15 0
BBX 0 0 0 0
BITMAP
ENDCHAR
STARTCHAR 0127
ENCODING 295
SWIDTH 300 0
DWIDTH 15 0
BBX 0 0 0 0
BITMAP
ENDCHAR
STARTCHAR 0128
ENCODING 296
SWIDTH 300 0
DWIDTH 15 0
BBX 0 0 0 0
BITMAP
ENDCHAR
STARTCHAR 0129
ENCODING 297
SWIDTH 300 0
DWIDTH 15 0
BBX 0 0 0 0
BITMAP
ENDCHAR
STARTCHAR 012A
ENCODING 298
SWIDTH 300 0
DWIDTH 15 0
BBX 0 0 0 0
BITMAP
ENDCHAR
STARTCHAR 012B
ENCODING 299
SWIDTH 300 0
DWIDTH 15 0
BBX 0 0 0 0
BITMAP
ENDCHAR
STARTCHAR 012C
ENCODING 300
SWIDTH 300 0
DWIDTH 15 0
BBX 0 0 0 0
BITMAP
ENDCHAR
STARTCHAR 012D
ENCODING 301
SWIDTH 300 0
DWIDTH 15 0
BBX 0 0 0 0
BITMAP
ENDCHAR
STARTCHAR 012E
ENCODING 302
SWIDTH 300 0
DWIDTH 15 0
BBX 0 0 0 0
BITMAP
ENDCHAR
STARTCHAR 012F
ENCODING 303
SWIDTH 300 0
DWIDTH 15 0
BBX 0 0 0 0
BITMAP
ENDCHAR
STARTCHAR 0130
ENCODING 304
SWIDTH 300 0
DWIDTH 15 0
BBX 0 0 0 0
BITMAP
ENDCHAR
STARTCHAR 0131
ENCODING 305
SWIDTH 1000 0
DWIDTH 50 0
BBX 0 0 0 0
BITMAP
ENDCHAR
STARTCHAR 0132
ENCODING 306
SWIDTH 300 0
DWIDTH 15 0
BBX 0 0 0 0
BITMAP
ENDCHAR
STARTCHAR 0133
ENCODING 307
SWIDTH 300 0
DWIDTH 15 0
BBX 0 0 0 0
BITMAP
ENDCHAR
STARTCHAR 0134
ENCODING 308
SWIDTH 300 0
DWIDTH 15 0
BBX 0 0 0 0
BITMAP
ENDCHAR
STARTCHAR 0135
ENCODING 309
SWIDTH 300 0
DWIDTH 15 0
BBX 0 0 0 0
BITMAP
ENDCHAR
STARTCHAR 0136
ENCODING 310
SWIDTH 300 0
DWIDTH 15 0
BBX 0 0 0 0
BITMAP
ENDCHAR
STARTCHAR 0137
ENCODING 311
SWIDTH 300 0
DWIDTH 15 0
BBX 0 0 0 0
BITMAP
ENDCHAR
STARTCHAR 0138
ENCODING 312
SWIDTH 300 0
DWIDTH 15 0
BBX 0 0 0 0
BITMAP
ENDCHAR
STARTCHAR 0139
ENCODING 313
SWIDTH 300 0
DWIDTH 15 0
BBX 0 0 0 0
BITMAP
ENDCHAR
STARTCHAR 013A
ENCODING 314
SWIDTH 300 0
DWIDTH 15 0
BBX 0 0 0 0
BITMAP
ENDCHAR
STARTCHAR 013B
ENCODING 315
SWIDTH 300 0
DWIDTH 15 0
BBX 0 0 0 0
BITMAP
ENDCHAR
STARTCHAR 013C
ENCODING 316
SWIDTH 300 0
DWIDTH 15 0
BBX 0 0 0 0
BITMAP
ENDCHAR
STARTCHAR 013D
ENCODING 317
SWIDTH 300 0
DWIDTH 15 0
BBX 0 0 0 0
BITMAP
ENDCHAR
STARTCHAR 013E
ENCODING 318
SWIDTH 300 0
DWIDTH 15 0
BBX 0 0 0 0
BITMAP
ENDCHAR
STARTCHAR 013F
ENCODING 319
SWIDTH 300 0
DWIDTH 15 0
BBX 0 0 0 0
BITMAP
ENDCHAR
STARTCHAR 0140
ENCODING 320
SWIDTH 300 0
DWIDTH 15 0
BBX 0 0 0 0
BITMAP
ENDCHAR
STARTCHAR 0141
ENCODING 321
SWIDTH 300 0
DWIDTH 15 0
BBX 0 0 0 0
BITMAP
ENDCHAR
STARTCHAR 0142
ENCODING 322
SWIDTH 300 0
DWIDTH 15 0
BBX 0 0 0 0
BITMAP
ENDCHAR
STARTCHAR 0143
ENCODING 323
SWIDTH 300 0
DWIDTH 15 0
BBX 0 0 0 0
BITMAP
ENDCHAR
STARTCHAR 0144
ENCODING 324
SWIDTH 300 0
DWIDTH 15 0
BBX 0 0 0 0
BITMAP
ENDCHAR
STARTCHAR 0145
ENCODING 325
SWIDTH 300 0
DWIDTH 15 0
BBX 0 0 0 0
BITMAP
ENDCHAR
STARTCHAR 0146
ENCODING 326
SWIDTH 300 0
DWIDTH 15 0
BBX 0 0 0 0
BITMAP
ENDCHAR
STARTCHAR 0147
ENCODING 327
SWIDTH 300 0
DWIDTH 15 0
BBX 0 0 0 0
BITMAP
ENDCHAR
STARTCHAR 0148
ENCODING 328
SWIDTH 300 0
DWIDTH 15 0
BBX 0 0 0 0
BITMAP
ENDCHAR
STARTCHAR 0149
ENCODING 329
SWIDTH 300 0
DWIDTH 15 0
BBX 0 0 0 0
BITMAP
ENDCHAR
STARTCHAR 014A
ENCODING 330
SWIDTH 300 0
DWIDTH 15 0
BBX 0 0 0 0
BITMAP
ENDCHAR
STARTCHAR 014B
ENCODING 331
SWIDTH 300 0
DWIDTH 15 0
BBX 0 0 0 0
BITMAP
ENDCHAR
STARTCHAR 014C
ENCODING 332
SWIDTH 300 0
DWIDTH 15 0
BBX 0 0 0 0
BITMAP
ENDCHAR
STARTCHAR 014D
ENCODING 333
SWIDTH 300 0
DWIDTH 15 0
BBX 0 0 0 0
BITMAP
ENDCHAR
STARTCHAR 014E
ENCODING 334
SWIDTH 300 0
DWIDTH 15 0
BBX 0 0 0 0
BITMAP
ENDCHAR
STARTCHAR 014F
ENCODING 335
SWIDTH 300 0
DWIDTH 15 0
BBX 0 0 0 0
BITMAP
ENDCHAR
STARTCHAR 0150
ENCODING 336
SWIDTH 300 0
DWIDTH 15 0
BBX 0 0 0 0
BITMAP
ENDCHAR
STARTCHAR 0151
ENCODING 337
SWIDTH 300 0
DWIDTH 15 0
BBX 0 0 0 0
BITMAP
ENDCHAR
STARTCHAR 0152
ENCODING 338
SWIDTH 920 0
DWIDTH 46 0
BBX 44 29 1 0
BITMAP
03FFF83FFFF0
0FFFFEFFFFF0
1FFFFFFFFFF0
3FFFFFFFFFF0
7FFFFFFFFFF0
7F001FF00000
FE000FE00000
FC000FC00000
FC000FC00000
FC000FC00000
FC000FC00000
FC000FC00000
FC000FFFFFF0
FC000FFFFFF0
FC000FFFFFF0
FC000FFFFFF0
FC000FFFFFF0
FC000FC00000
FC000FC00000
FC000FC00000
FC000FC00000
FC000FC00000
FC000FC00000
7E001FE00000
7FFFFFFFFFF0
3FFFFFFFFFF0
3FFFFFFFFFF0
0FFFFEFFFFF0
03FFF83FFFF0
ENDCHAR
STARTCHAR 0153
ENCODING 339
SWIDTH 960 0
DWIDTH 48 0
BBX 44 29 2 0
BITMAP
07FFE07FFC00
1FFFF9FFFF00
3FFFFFFFFFC0
7FFFFFFFFFC0
7FFFFFFFFFE0
FE007FC007E0
FC003F8003F0
FC001F8003F0
FC001F8003F0
FC001F8003F0
FC001F8007F0
FC001F800FE0
FC001F8FFFE0
FC001F8FFFC0
FC001F8FFF80
FC001F8FFF00
FC001F8FFC00
FC001F800000
FC001F800000
FC001F800000
FC001F800000
FC001F800000
FC001F800000
FE003FC00000
7FFFFFFFFFF0
7FFFFFFFFFF0
3FFFFFFFFFF0
1FFFFDFFFFF0
07FFF07FFFF0
ENDCHAR
STARTCHAR 0154
ENCODING 340
SWIDTH 300 0
DWIDTH 15 0
BBX 0 0 0 0
BITMAP
ENDCHAR
STARTCHAR 0155
ENCODING 341
SWIDTH 300 0
DWIDTH 15 0
BBX 0 0 0 0
BITMAP
ENDCHAR
STARTCHAR 0156
ENCODING 342
SWIDTH 300 0
DWIDTH 15 0
BBX 0 0 0 0
BITMAP
ENDCHAR
STARTCHAR 0157
ENCODING 343
SWIDTH 300 0
DWIDTH 15 0
BBX 0 0 0 0
BITMAP
ENDCHAR
STARTCHAR 0158
ENCODING 344
SWIDTH 300 0
DWIDTH 15 0
BBX 0 0 0 0
BITMAP
ENDCHAR
STARTCHAR 0159
ENCODING 345
SWIDTH 300 0
DWIDTH 15 0
BBX 0 0 0 0
BITMAP
ENDCHAR
STARTCHAR 015A
ENCODING 346
SWIDTH 300 0
DWIDTH 15 0
BBX 0 0 0 0
BITMAP
ENDCHAR
STARTCHAR 015B
ENCODING 347
SWIDTH 300 0
DWIDTH 15 0
BBX 0 0 0 0
BITMAP
ENDCHAR
STARTCHAR 015C
ENCODING 348
SWIDTH 300 0
DWIDTH 15 0
BBX 0 0 0 0
BITMAP
ENDCHAR
STARTCHAR 015D
ENCODING 349
SWIDTH 300 0
DWIDTH 15 0
BBX 0 0 0 0
BITMAP
ENDCHAR
STARTCHAR 015E
ENCODING 350
SWIDTH 300 0
DWIDTH 15 0
BBX 0 0 0 0
BITMAP
ENDCHAR
STARTCHAR 015F
ENCODING 351
SWIDTH 300 0
DWIDTH 15 0
BBX 0 0 0 0
BITMAP
ENDCHAR
STARTCHAR 0160
ENCODING 352
SWIDTH 300 0
DWIDTH 15 0
BBX 0 0 0 0
BITMAP
ENDCHAR
STARTCHAR 0161
ENCODING 353
SWIDTH 300 0
DWIDTH 15 0
BBX 0 0 0 0
BITMAP
ENDCHAR
STARTCHAR 0162
ENCODING 354
SWIDTH 300 0
DWIDTH 15 0
BBX 0 0 0 0
BITMAP
ENDCHAR
STARTCHAR 0163
ENCODING 355
SWIDTH 300 0
DWIDTH 15 0
BBX 0 0 0 0
BITMAP
ENDCHAR
STARTCHAR 0164
ENCODING 356
SWIDTH 300 0
DWIDTH 15 0
BBX 0 0 0 0
BITMAP
ENDCHAR
STARTCHAR 0165
ENCODING 357
SWIDTH 300 0
DWIDTH 15 0
BBX 0 0 0 0
BITMAP
ENDCHAR
STARTCHAR 0166
ENCODING 358
SWIDTH 300 0
DWIDTH 15 0
BBX 0 0 0 0
BITMAP
ENDCHAR
STARTCHAR 0167
ENCODING 359
SWIDTH 300 0
DWIDTH 15 0
BBX 0 0 0 0
BITMAP
ENDCHAR
STARTCHAR 0168
ENCODING 360
SWIDTH 300 0
DWIDTH 15 0
BBX 0 0 0 0
BITMAP
ENDCHAR
STARTCHAR 0169
ENCODING 361
SWIDTH 300 0
DWIDTH 15 0
BBX 0 0 0 0
BITMAP
ENDCHAR
STARTCHAR 016A
ENCODING 362
SWIDTH 300 0
DWIDTH 15 0
BBX 0 0 0 0
BITMAP
ENDCHAR
STARTCHAR 016B
ENCODING 363
SWIDTH 300 0
DWIDTH 15 0
BBX 0 0 0 0
BITMAP
ENDCHAR
STARTCHAR 016C
ENCODING 364
SWIDTH 300 0
DWIDTH 15 0
BBX 0 0 0 0
BITMAP
ENDCHAR
STARTCHAR 016D
ENCODING 365
SWIDTH 300 0
DWIDTH 15 0
BBX 0 0 0 0
BITMAP
ENDCHAR
STARTCHAR 016E
ENCODING 366
SWIDTH 300 0
DWIDTH 15 0
BBX 0 0 0 0
BITMAP
ENDCHAR
STARTCHAR 016F
ENCODING 367
SWIDTH 300 0
DWIDTH 15 0
BBX 0 0 0 0
BITMAP
ENDCHAR
STARTCHAR 0170
ENCODING 368
SWIDTH 300 0
DWIDTH 15 0
BBX 0 0 0 0
BITMAP
ENDCHAR
STARTCHAR 0171
ENCODING 369
SWIDTH 300 0
DWIDTH 15 0
BBX 0 0 0 0
BITMAP
ENDCHAR
STARTCHAR 0172
ENCODING 370
SWIDTH 300 0
DWIDTH 15 0
BBX 0 0 0 0
BITMAP
ENDCHAR
STARTCHAR 0173
ENCODING 371
SWIDTH 300 0
DWIDTH 15 0
BBX 0 0 0 0
BITMAP
ENDCHAR
STARTCHAR 0174
ENCODING 372
SWIDTH 300 0
DWIDTH 15 0
BBX 0 0 0 0
BITMAP
ENDCHAR
STARTCHAR 0175
ENCODING 373
SWIDTH 300 0
DWIDTH 15 0
BBX 0 0 0 0
BITMAP
ENDCHAR
STARTCHAR 0176
ENCODING 374
SWIDTH 300 0
DWIDTH 15 0
BBX 0 0 0 0
BITMAP
ENDCHAR
STARTCHAR 0177
ENCODING 375
SWIDTH 300 0
DWIDTH 15 0
BBX 0 0 0 0
BITMAP
ENDCHAR
STARTCHAR 0178
ENCODING 376
SWIDTH 760 0
DWIDTH 38 0
BBX 35 39 2 0
BITMAP
001E1E0000
003F3F0000
003F3F0000
001E1E0000
0000000000
0000000000
0000000000
0000000000
0000000000
0000000000
FC000007E0
FC000007E0
FC000007E0
FC000007E0
FC000007E0
FC000007E0
FC000007E0
FC000007E0
FC000007E0
FC000007E0
FC000007E0
FE00000FE0
7FFFFFFFC0
7FFFFFFFC0
3FFFFFFF80
1FFFFFFF00
07FFFFFC00
0001F80000
0001F80000
0001F80000
0001F80000
0001F80000
0001F80000
0001F80000
0001F80000
0001F80000
0001F80000
0001F80000
0001F80000
ENDCHAR
STARTCHAR 0179
ENCODING 377
SWIDTH 300 0
DWIDTH 15 0
BBX 0 0 0 0
BITMAP
ENDCHAR
STARTCHAR 017A
ENCODING 378
SWIDTH 300 0
DWIDTH 15 0
BBX 0 0 0 0
BITMAP
ENDCHAR
STARTCHAR 017B
ENCODING 379
SWIDTH 300 0
DWIDTH 15 0
BBX 0 0 0 0
BITMAP
ENDCHAR
STARTCHAR 017C
ENCODING 380
SWIDTH 300 0
DWIDTH 15 0
BBX 0 0 0 0
BITMAP
ENDCHAR
STARTCHAR 017D
ENCODING 381
SWIDTH 300 0
DWIDTH 15 0
BBX 0 0 0 0
BITMAP
ENDCHAR
STARTCHAR 017E
ENCODING 382
SWIDTH 300 0
DWIDTH 15 0
BBX 0 0 0 0
BITMAP
ENDCHAR
STARTCHAR 017F
ENCODING 383
SWIDTH 300 0
DWIDTH 15 0
BBX 0 0 0 0
BITMAP
ENDCHAR
STARTCHAR 0192
ENCODING 402
SWIDTH 300 0
DWIDTH 15 0
BBX 0 0 0 0
BITMAP
ENDCHAR
STARTCHAR 01FA
ENCODING 506
SWIDTH 300 0
DWIDTH 15 0
BBX 0 0 0 0
BITMAP
ENDCHAR
STARTCHAR 01FB
ENCODING 507
SWIDTH 300 0
DWIDTH 15 0
BBX 0 0 0 0
BITMAP
ENDCHAR
STARTCHAR 01FC
ENCODING 508
SWIDTH 300 0
DWIDTH 15 0
BBX 0 0 0 0
BITMAP
ENDCHAR
STARTCHAR 01FD
ENCODING 509
SWIDTH 300 0
DWIDTH 15 0
BBX 0 0 0 0
BITMAP
ENDCHAR
STARTCHAR 01FE
ENCODING 510
SWIDTH 300 0
DWIDTH 15 0
BBX 0 0 0 0
BITMAP
ENDCHAR
STARTCHAR 01FF
ENCODING 511
SWIDTH 300 0
DWIDTH 15 0
BBX 0 0 0 0
BITMAP
ENDCHAR
STARTCHAR 02C6
ENCODING 710
SWIDTH 480 0
DWIDTH 24 0
BBX 13 7 6 24
BITMAP
0F80
1FC0
3FC0
3DE0
78F0
F070
E038
ENDCHAR
STARTCHAR 02C7
ENCODING 711
SWIDTH 300 0
DWIDTH 15 0
BBX 0 0 0 0
BITMAP
ENDCHAR
STARTCHAR 02C9
ENCODING 713
SWIDTH 300 0
DWIDTH 15 0
BBX 0 0 0 0
BITMAP
ENDCHAR
STARTCHAR 02D8
ENCODING 728
SWIDTH 300 0
DWIDTH 15 0
BBX 0 0 0 0
BITMAP
ENDCHAR
STARTCHAR 02D9
ENCODING 729
SWIDTH 300 0
DWIDTH 15 0
BBX 0 0 0 0
BITMAP
ENDCHAR
STARTCHAR 02DA
ENCODING 730
SWIDTH 460 0
DWIDTH 23 0
BBX 9 9 8 24
BITMAP
3C00
7F00
E300
C180
C180
C180
E300
7F00
3C00
ENDCHAR
STARTCHAR 02DB
ENCODING 731
SWIDTH 300 0
DWIDTH 15 0
BBX 0 0 0 0
BITMAP
ENDCHAR
STARTCHAR 02DC
ENCODING 732
SWIDTH 540 0
DWIDTH 27 0
BBX 18 7 5 23
BITMAP
0F8300
3FFF80
7FFFC0
FFFF80
FFFE00
70FC00
600000
ENDCHAR
STARTCHAR 02DD
ENCODING 733
SWIDTH 300 0
DWIDTH 15 0
BBX 0 0 0 0
BITMAP
ENDCHAR
STARTCHAR 0384
ENCODING 900
SWIDTH 300 0
DWIDTH 15 0
BBX 0 0 0 0
BITMAP
ENDCHAR
STARTCHAR 0385
ENCODING 901
SWIDTH 300 0
DWIDTH 15 0
BBX 0 0 0 0
BITMAP
ENDCHAR
STARTCHAR 0386
ENCODING 902
SWIDTH 300 0
DWIDTH 15 0
BBX 0 0 0 0
BITMAP
ENDCHAR
STARTCHAR 0387
ENCODING 903
SWIDTH 300 0
DWIDTH 15 0
BBX 0 0 0 0
BITMAP
ENDCHAR
STARTCHAR 0388
ENCODING 904
SWIDTH 300 0
DWIDTH 15 0
BBX 0 0 0 0
BITMAP
ENDCHAR
STARTCHAR 0389
ENCODING 905
SWIDTH 300 0
DWIDTH 15 0
BBX 0 0 0 0
BITMAP
ENDCHAR
STARTCHAR 038A
ENCODING 906
SWIDTH 300 0
DWIDTH 15 0
BBX 0 0 0 0
BITMAP
ENDCHAR
STARTCHAR 038C
ENCODING 908
SWIDTH 300 0
DWIDTH 15 0
BBX 0 0 0 0
BITMAP
ENDCHAR
STARTCHAR 038E
ENCODING 910
SWIDTH 300 0
DWIDTH 15 0
BBX 0 0 0 0
BITMAP
ENDCHAR
STARTCHAR 038F
ENCODING 911
SWIDTH 300 0
DWIDTH 15 0
BBX 0 0 0 0
BITMAP
ENDCHAR
STARTCHAR 0390
ENCODING 912
SWIDTH 300 0
DWIDTH 15 0
BBX 0 0 0 0
BITMAP
ENDCHAR
STARTCHAR 0391
ENCODING 913
SWIDTH 300 0
DWIDTH 15 0
BBX 0 0 0 0
BITMAP
ENDCHAR
STARTCHAR 0392
ENCODING 914
SWIDTH 300 0
DWIDTH 15 0
BBX 0 0 0 0
BITMAP
ENDCHAR
STARTCHAR 0393
ENCODING 915
SWIDTH 300 0
DWIDTH 15 0
BBX 0 0 0 0
BITMAP
ENDCHAR
STARTCHAR 0394
ENCODING 916
SWIDTH 300 0
DWIDTH 15 0
BBX 0 0 0 0
BITMAP
ENDCHAR
STARTCHAR 0395
ENCODING 917
SWIDTH 300 0
DWIDTH 15 0
BBX 0 0 0 0
BITMAP
ENDCHAR
STARTCHAR 0396
ENCODING 918
SWIDTH 300 0
DWIDTH 15 0
BBX 0 0 0 0
BITMAP
ENDCHAR
STARTCHAR 0397
ENCODING 919
SWIDTH 300 0
DWIDTH 15 0
BBX 0 0 0 0
BITMAP
ENDCHAR
STARTCHAR 0398
ENCODING 920
SWIDTH 300 0
DWIDTH 15 0
BBX 0 0 0 0
BITMAP
ENDCHAR
STARTCHAR 0399
ENCODING 921
SWIDTH 300 0
DWIDTH 15 0
BBX 0 0 0 0
BITMAP
ENDCHAR
STARTCHAR 039A
ENCODING 922
SWIDTH 300 0
DWIDTH 15 0
BBX 0 0 0 0
BITMAP
ENDCHAR
STARTCHAR 039B
ENCODING 923
SWIDTH 300 0
DWIDTH 15 0
BBX 0 0 0 0
BITMAP
ENDCHAR
STARTCHAR 039C
ENCODING 924
SWIDTH 300 0
DWIDTH 15 0
BBX 0 0 0 0
BITMAP
ENDCHAR
STARTCHAR 039D
ENCODING 925
SWIDTH 300 0
DWIDTH 15 0
BBX 0 0 0 0
BITMAP
ENDCHAR
STARTCHAR 039E
ENCODING 926
SWIDTH 300 0
DWIDTH 15 0
BBX 0 0 0 0
BITMAP
ENDCHAR
STARTCHAR 039F
ENCODING 927
SWIDTH 300 0
DWIDTH 15 0
BBX 0 0 0 0
BITMAP
ENDCHAR
STARTCHAR 03A0
ENCODING 928
SWIDTH 300 0
DWIDTH 15 0
BBX 0 0 0 0
BITMAP
ENDCHAR
STARTCHAR 03A1
ENCODING 929
SWIDTH 300 0
DWIDTH 15 0
BBX 0 0 0 0
BITMAP
ENDCHAR
STARTCHAR 03A3
ENCODING 931
SWIDTH 300 0
DWIDTH 15 0
BBX 0 0 0 0
BITMAP
ENDCHAR
STARTCHAR 03A4
ENCODING 932
SWIDTH 300 0
DWIDTH 15 0
BBX 0 0 0 0
BITMAP
ENDCHAR
STARTCHAR 03A5
ENCODING 933
SWIDTH 300 0
DWIDTH 15 0
BBX 0 0 0 0
BITMAP
ENDCHAR
STARTCHAR 03A6
ENCODING 934
SWIDTH 300 0
DWIDTH 15 0
BBX 0 0 0 0
BITMAP
ENDCHAR
STARTCHAR 03A7
ENCODING 935
SWIDTH 300 0
DWIDTH 15 0
BBX 0 0 0 0
BITMAP
ENDCHAR
STARTCHAR 03A8
ENCODING 936
SWIDTH 300 0
DWIDTH 15 0
BBX 0 0 0 0
BITMAP
ENDCHAR
STARTCHAR 03A9
ENCODING 937
SWIDTH 300 0
DWIDTH 15 0
BBX 0 0 0 0
BITMAP
ENDCHAR
STARTCHAR 03AA
ENCODING 938
SWIDTH 300 0
DWIDTH 15 0
BBX 0 0 0 0
BITMAP
ENDCHAR
STARTCHAR 03AB
ENCODING 939
SWIDTH 300 0
DWIDTH 15 0
BBX 0 0 0 0
BITMAP
ENDCHAR
STARTCHAR 03AC
ENCODING 940
SWIDTH 300 0
DWIDTH 15 0
BBX 0 0 0 0
BITMAP
ENDCHAR
STARTCHAR 03AD
ENCODING 941
SWIDTH 300 0
DWIDTH 15 0
BBX 0 0 0 0
BITMAP
ENDCHAR
STARTCHAR 03AE
ENCODING 942
SWIDTH 300 0
DWIDTH 15 0
BBX 0 0 0 0
BITMAP
ENDCHAR
STARTCHAR 03AF
ENCODING 943
SWIDTH 300 0
DWIDTH 15 0
BBX 0 0 0 0
BITMAP
ENDCHAR
STARTCHAR 03B0
ENCODING 944
SWIDTH 300 0
DWIDTH 15 0
BBX 0 0 0 0
BITMAP
ENDCHAR
STARTCHAR 03B1
ENCODING 945
SWIDTH 300 0
DWIDTH 15 0
BBX 0 0 0 0
BITMAP
ENDCHAR
STARTCHAR 03B2
ENCODING 946
SWIDTH 300 0
DWIDTH 15 0
BBX 0 0 0 0
BITMAP
ENDCHAR
STARTCHAR 03B3
ENCODING 947
SWIDTH 300 0
DWIDTH 15 0
BBX 0 0 0 0
BITMAP
ENDCHAR
STARTCHAR 03B4
ENCODING 948
SWIDTH 300 0
DWIDTH 15 0
BBX 0 0 0 0
BITMAP
ENDCHAR
STARTCHAR 03B5
ENCODING 949
SWIDTH 300 0
DWIDTH 15 0
BBX 0 0 0 0
BITMAP
ENDCHAR
STARTCHAR 03B6
ENCODING 950
SWIDTH 300 0
DWIDTH 15 0
BBX 0 0 0 0
BITMAP
ENDCHAR
STARTCHAR 03B7
ENCODING 951
SWIDTH 300 0
DWIDTH 15 0
BBX 0 0 0 0
BITMAP
ENDCHAR
STARTCHAR 03B8
ENCODING 952
SWIDTH 300 0
DWIDTH 15 0
BBX 0 0 0 0
BITMAP
ENDCHAR
STARTCHAR 03B9
ENCODING 953
SWIDTH 300 0
DWIDTH 15 0
BBX 0 0 0 0
BITMAP
ENDCHAR
STARTCHAR 03BA
ENCODING 954
SWIDTH 300 0
DWIDTH 15 0
BBX 0 0 0 0
BITMAP
ENDCHAR
STARTCHAR 03BB
ENCODING 955
SWIDTH 300 0
DWIDTH 15 0
BBX 0 0 0 0
BITMAP
ENDCHAR
STARTCHAR 03BC
ENCODING 956
SWIDTH 300 0
DWIDTH 15 0
BBX 0 0 0 0
BITMAP
ENDCHAR
STARTCHAR 03BD
ENCODING 957
SWIDTH 300 0
DWIDTH 15 0
BBX 0 0 0 0
BITMAP
ENDCHAR
STARTCHAR 03BE
ENCODING 958
SWIDTH 300 0
DWIDTH 15 0
BBX 0 0 0 0
BITMAP
ENDCHAR
STARTCHAR 03BF
ENCODING 959
SWIDTH 300 0
DWIDTH 15 0
BBX 0 0 0 0
BITMAP
ENDCHAR
STARTCHAR 03C0
ENCODING 960
SWIDTH 300 0
DWIDTH 15 0
BBX 0 0 0 0
BITMAP
ENDCHAR
STARTCHAR 03C1
ENCODING 961
SWIDTH 300 0
DWIDTH 15 0
BBX 0 0 0 0
BITMAP
ENDCHAR
STARTCHAR 03C2
ENCODING 962
SWIDTH 300 0
DWIDTH 15 0
BBX 0 0 0 0
BITMAP
ENDCHAR
STARTCHAR 03C3
ENCODING 963
SWIDTH 300 0
DWIDTH 15 0
BBX 0 0 0 0
BITMAP
ENDCHAR
STARTCHAR 03C4
ENCODING 964
SWIDTH 300 0
DWIDTH 15 0
BBX 0 0 0 0
BITMAP
ENDCHAR
STARTCHAR 03C5
ENCODING 965
SWIDTH 300 0
DWIDTH 15 0
BBX 0 0 0 0
BITMAP
ENDCHAR
STARTCHAR 03C6
ENCODING 966
SWIDTH 300 0
DWIDTH 15 0
BBX 0 0 0 0
BITMAP
ENDCHAR
STARTCHAR 03C7
ENCODING 967
SWIDTH 300 0
DWIDTH 15 0
BBX 0 0 0 0
BITMAP
ENDCHAR
STARTCHAR 03C8
ENCODING 968
SWIDTH 300 0
DWIDTH 15 0
BBX 0 0 0 0
BITMAP
ENDCHAR
STARTCHAR 03C9
ENCODING 969
SWIDTH 300 0
DWIDTH 15 0
BBX 0 0 0 0
BITMAP
ENDCHAR
STARTCHAR 03CA
ENCODING 970
SWIDTH 300 0
DWIDTH 15 0
BBX 0 0 0 0
BITMAP
ENDCHAR
STARTCHAR 03CB
ENCODING 971
SWIDTH 300 0
DWIDTH 15 0
BBX 0 0 0 0
BITMAP
ENDCHAR
STARTCHAR 03CC
ENCODING 972
SWIDTH 300 0
DWIDTH 15 0
BBX 0 0 0 0
BITMAP
ENDCHAR
STARTCHAR 03CD
ENCODING 973
SWIDTH 300 0
DWIDTH 15 0
BBX 0 0 0 0
BITMAP
ENDCHAR
STARTCHAR 03CE
ENCODING 974
SWIDTH 300 0
DWIDTH 15 0
BBX 0 0 0 0
BITMAP
ENDCHAR
STARTCHAR 0401
ENCODING 1025
SWIDTH 300 0
DWIDTH 15 0
BBX 0 0 0 0
BITMAP
ENDCHAR
STARTCHAR 0402
ENCODING 1026
SWIDTH 300 0
DWIDTH 15 0
BBX 0 0 0 0
BITMAP
ENDCHAR
STARTCHAR 0403
ENCODING 1027
SWIDTH 300 0
DWIDTH 15 0
BBX 0 0 0 0
BITMAP
ENDCHAR
STARTCHAR 0404
ENCODING 1028
SWIDTH 300 0
DWIDTH 15 0
BBX 0 0 0 0
BITMAP
ENDCHAR
STARTCHAR 0405
ENCODING 1029
SWIDTH 300 0
DWIDTH 15 0
BBX 0 0 0 0
BITMAP
ENDCHAR
STARTCHAR 0406
ENCODING 1030
SWIDTH 300 0
DWIDTH 15 0
BBX 0 0 0 0
BITMAP
ENDCHAR
STARTCHAR 0407
ENCODING 1031
SWIDTH 300 0
DWIDTH 15 0
BBX 0 0 0 0
BITMAP
ENDCHAR
STARTCHAR 0408
ENCODING 1032
SWIDTH 300 0
DWIDTH 15 0
BBX 0 0 0 0
BITMAP
ENDCHAR
STARTCHAR 0409
ENCODING 1033
SWIDTH 300 0
DWIDTH 15 0
BBX 0 0 0 0
BITMAP
ENDCHAR
STARTCHAR 040A
ENCODING 1034
SWIDTH 300 0
DWIDTH 15 0
BBX 0 0 0 0
BITMAP
ENDCHAR
STARTCHAR 040B
ENCODING 1035
SWIDTH 300 0
DWIDTH 15 0
BBX 0 0 0 0
BITMAP
ENDCHAR
STARTCHAR 040C
ENCODING 1036
SWIDTH 300 0
DWIDTH 15 0
BBX 0 0 0 0
BITMAP
ENDCHAR
STARTCHAR 040E
ENCODING 1038
SWIDTH 300 0
DWIDTH 15 0
BBX 0 0 0 0
BITMAP
ENDCHAR
STARTCHAR 040F
ENCODING 1039
SWIDTH 300 0
DWIDTH 15 0
BBX 0 0 0 0
BITMAP
ENDCHAR
STARTCHAR 0410
ENCODING 1040
SWIDTH 300 0
DWIDTH 15 0
BBX 0 0 0 0
BITMAP
ENDCHAR
STARTCHAR 0411
ENCODING 1041
SWIDTH 300 0
DWIDTH 15 0
BBX 0 0 0 0
BITMAP
ENDCHAR
STARTCHAR 0412
ENCODING 1042
SWIDTH 300 0
DWIDTH 15 0
BBX 0 0 0 0
BITMAP
ENDCHAR
STARTCHAR 0413
ENCODING 1043
SWIDTH 300 0
DWIDTH 15 0
BBX 0 0 0 0
BITMAP
ENDCHAR
STARTCHAR 0414
ENCODING 1044
SWIDTH 300 0
DWIDTH 15 0
BBX 0 0 0 0
BITMAP
ENDCHAR
STARTCHAR 0415
ENCODING 1045
SWIDTH 300 0
DWIDTH 15 0
BBX 0 0 0 0
BITMAP
ENDCHAR
STARTCHAR 0416
ENCODING 1046
SWIDTH 300 0
DWIDTH 15 0
BBX 0 0 0 0
BITMAP
ENDCHAR
STARTCHAR 0417
ENCODING 1047
SWIDTH 300 0
DWIDTH 15 0
BBX 0 0 0 0
BITMAP
ENDCHAR
STARTCHAR 0418
ENCODING 1048
SWIDTH 300 0
DWIDTH 15 0
BBX 0 0 0 0
BITMAP
ENDCHAR
STARTCHAR 0419
ENCODING 1049
SWIDTH 300 0
DWIDTH 15 0
BBX 0 0 0 0
BITMAP
ENDCHAR
STARTCHAR 041A
ENCODING 1050
SWIDTH 300 0
DWIDTH 15 0
BBX 0 0 0 0
BITMAP
ENDCHAR
STARTCHAR 041B
ENCODING 1051
SWIDTH 300 0
DWIDTH 15 0
BBX 0 0 0 0
BITMAP
ENDCHAR
STARTCHAR 041C
ENCODING 1052
SWIDTH 300 0
DWIDTH 15 0
BBX 0 0 0 0
BITMAP
ENDCHAR
STARTCHAR 041D
ENCODING 1053
SWIDTH 300 0
DWIDTH 15 0
BBX 0 0 0 0
BITMAP
ENDCHAR
STARTCHAR 041E
ENCODING 1054
SWIDTH 300 0
DWIDTH 15 0
BBX 0 0 0 0
BITMAP
ENDCHAR
STARTCHAR 041F
ENCODING 1055
SWIDTH 300 0
DWIDTH 15 0
BBX 0 0 0 0
BITMAP
ENDCHAR
STARTCHAR 0420
ENCODING 1056
SWIDTH 300 0
DWIDTH 15 0
BBX 0 0 0 0
BITMAP
ENDCHAR
STARTCHAR 0421
ENCODING 1057
SWIDTH 300 0
DWIDTH 15 0
BBX 0 0 0 0
BITMAP
ENDCHAR
STARTCHAR 0422
ENCODING 1058
SWIDTH 300 0
DWIDTH 15 0
BBX 0 0 0 0
BITMAP
ENDCHAR
STARTCHAR 0423
ENCODING 1059
SWIDTH 300 0
DWIDTH 15 0
BBX 0 0 0 0
BITMAP
ENDCHAR
STARTCHAR 0424
ENCODING 1060
SWIDTH 300 0
DWIDTH 15 0
BBX 0 0 0 0
BITMAP
ENDCHAR
STARTCHAR 0425
ENCODING 1061
SWIDTH 300 0
DWIDTH 15 0
BBX 0 0 0 0
BITMAP
ENDCHAR
STARTCHAR 0426
ENCODING 1062
SWIDTH 300 0
DWIDTH 15 0
BBX 0 0 0 0
BITMAP
ENDCHAR
STARTCHAR 0427
ENCODING 1063
SWIDTH 300 0
DWIDTH 15 0
BBX 0 0 0 0
BITMAP
ENDCHAR
STARTCHAR 0428
ENCODING 1064
SWIDTH 300 0
DWIDTH 15 0
BBX 0 0 0 0
BITMAP
ENDCHAR
STARTCHAR 0429
ENCODING 1065
SWIDTH 300 0
DWIDTH 15 0
BBX 0 0 0 0
BITMAP
ENDCHAR
STARTCHAR 042A
ENCODING 1066
SWIDTH 300 0
DWIDTH 15 0
BBX 0 0 0 0
BITMAP
ENDCHAR
STARTCHAR 042B
ENCODING 1067
SWIDTH 300 0
DWIDTH 15 0
BBX 0 0 0 0
BITMAP
ENDCHAR
STARTCHAR 042C
ENCODING 1068
SWIDTH 300 0
DWIDTH 15 0
BBX 0 0 0 0
BITMAP
ENDCHAR
STARTCHAR 042D
ENCODING 1069
SWIDTH 300 0
DWIDTH 15 0
BBX 0 0 0 0
BITMAP
ENDCHAR
STARTCHAR 042E
ENCODING 1070
SWIDTH 300 0
DWIDTH 15 0
BBX 0 0 0 0
BITMAP
ENDCHAR
STARTCHAR 042F
ENCODING 1071
SWIDTH 300 0
DWIDTH 15 0
BBX 0 0 0 0
BITMAP
ENDCHAR
STARTCHAR 0430
ENCODING 1072
SWIDTH 300 0
DWIDTH 15 0
BBX 0 0 0 0
BITMAP
ENDCHAR
STARTCHAR 0431
ENCODING 1073
SWIDTH 300 0
DWIDTH 15 0
BBX 0 0 0 0
BITMAP
ENDCHAR
STARTCHAR 0432
ENCODING 1074
SWIDTH 300 0
DWIDTH 15 0
BBX 0 0 0 0
BITMAP
ENDCHAR
STARTCHAR 0433
ENCODING 1075
SWIDTH 300 0
DWIDTH 15 0
BBX 0 0 0 0
BITMAP
ENDCHAR
STARTCHAR 0434
ENCODING 1076
SWIDTH 300 0
DWIDTH 15 0
BBX 0 0 0 0
BITMAP
ENDCHAR
STARTCHAR 0435
ENCODING 1077
SWIDTH 300 0
DWIDTH 15 0
BBX 0 0 0 0
BITMAP
ENDCHAR
STARTCHAR 0436
ENCODING 1078
SWIDTH 300 0
DWIDTH 15 0
BBX 0 0 0 0
BITMAP
ENDCHAR
STARTCHAR 0437
ENCODING 1079
SWIDTH 300 0
DWIDTH 15 0
BBX 0 0 0 0
BITMAP
ENDCHAR
STARTCHAR 0438
ENCODING 1080
SWIDTH 300 0
DWIDTH 15 0
BBX 0 0 0 0
BITMAP
ENDCHAR
STARTCHAR 0439
ENCODING 1081
SWIDTH 300 0
DWIDTH 15 0
BBX 0 0 0 0
BITMAP
ENDCHAR
STARTCHAR 043A
ENCODING 1082
SWIDTH 300 0
DWIDTH 15 0
BBX 0 0 0 0
BITMAP
ENDCHAR
STARTCHAR 043B
ENCODING 1083
SWIDTH 300 0
DWIDTH 15 0
BBX 0 0 0 0
BITMAP
ENDCHAR
STARTCHAR 043C
ENCODING 1084
SWIDTH 300 0
DWIDTH 15 0
BBX 0 0 0 0
BITMAP
ENDCHAR
STARTCHAR 043D
ENCODING 1085
SWIDTH 300 0
DWIDTH 15 0
BBX 0 0 0 0
BITMAP
ENDCHAR
STARTCHAR 043E
ENCODING 1086
SWIDTH 300 0
DWIDTH 15 0
BBX 0 0 0 0
BITMAP
ENDCHAR
STARTCHAR 043F
ENCODING 1087
SWIDTH 300 0
DWIDTH 15 0
BBX 0 0 0 0
BITMAP
ENDCHAR
STARTCHAR 0440
ENCODING 1088
SWIDTH 300 0
DWIDTH 15 0
BBX 0 0 0 0
BITMAP
ENDCHAR
STARTCHAR 0441
ENCODING 1089
SWIDTH 300 0
DWIDTH 15 0
BBX 0 0 0 0
BITMAP
ENDCHAR
STARTCHAR 0442
ENCODING 1090
SWIDTH 300 0
DWIDTH 15 0
BBX 0 0 0 0
BITMAP
ENDCHAR
STARTCHAR 0443
ENCODING 1091
SWIDTH 300 0
DWIDTH 15 0
BBX 0 0 0 0
BITMAP
ENDCHAR
STARTCHAR 0444
ENCODING 1092
SWIDTH 300 0
DWIDTH 15 0
BBX 0 0 0 0
BITMAP
ENDCHAR
STARTCHAR 0445
ENCODING 1093
SWIDTH 300 0
DWIDTH 15 0
BBX 0 0 0 0
BITMAP
ENDCHAR
STARTCHAR 0446
ENCODING 1094
SWIDTH 300 0
DWIDTH 15 0
BBX 0 0 0 0
BITMAP
ENDCHAR
STARTCHAR 0447
ENCODING 1095
SWIDTH 300 0
DWIDTH 15 0
BBX 0 0 0 0
BITMAP
ENDCHAR
STARTCHAR 0448
ENCODING 1096
SWIDTH 300 0
DWIDTH 15 0
BBX 0 0 0 0
BITMAP
ENDCHAR
STARTCHAR 0449
ENCODING 1097
SWIDTH 300 0
DWIDTH 15 0
BBX 0 0 0 0
BITMAP
ENDCHAR
STARTCHAR 044A
ENCODING 1098
SWIDTH 300 0
DWIDTH 15 0
BBX 0 0 0 0
BITMAP
ENDCHAR
STARTCHAR 044B
ENCODING 1099
SWIDTH 300 0
DWIDTH 15 0
BBX 0 0 0 0
BITMAP
ENDCHAR
STARTCHAR 044C
ENCODING 1100
SWIDTH 300 0
DWIDTH 15 0
BBX 0 0 0 0
BITMAP
ENDCHAR
STARTCHAR 044D
ENCODING 1101
SWIDTH 300 0
DWIDTH 15 0
BBX 0 0 0 0
BITMAP
ENDCHAR
STARTCHAR 044E
ENCODING 1102
SWIDTH 300 0
DWIDTH 15 0
BBX 0 0 0 0
BITMAP
ENDCHAR
STARTCHAR 044F
ENCODING 1103
SWIDTH 300 0
DWIDTH 15 0
BBX 0 0 0 0
BITMAP
ENDCHAR
STARTCHAR 0451
ENCODING 1105
SWIDTH 300 0
DWIDTH 15 0
BBX 0 0 0 0
BITMAP
ENDCHAR
STARTCHAR 0452
ENCODING 1106
SWIDTH 300 0
DWIDTH 15 0
BBX 0 0 0 0
BITMAP
ENDCHAR
STARTCHAR 0453
ENCODING 1107
SWIDTH 300 0
DWIDTH 15 0
BBX 0 0 0 0
BITMAP
ENDCHAR
STARTCHAR 0454
ENCODING 1108
SWIDTH 300 0
DWIDTH 15 0
BBX 0 0 0 0
BITMAP
ENDCHAR
STARTCHAR 0455
ENCODING 1109
SWIDTH 300 0
DWIDTH 15 0
BBX 0 0 0 0
BITMAP
ENDCHAR
STARTCHAR 0456
ENCODING 1110
SWIDTH 300 0
DWIDTH 15 0
BBX 0 0 0 0
BITMAP
ENDCHAR
STARTCHAR 0457
ENCODING 1111
SWIDTH 300 0
DWIDTH 15 0
BBX 0 0 0 0
BITMAP
ENDCHAR
STARTCHAR 0458
ENCODING 1112
SWIDTH 300 0
DWIDTH 15 0
BBX 0 0 0 0
BITMAP
ENDCHAR
STARTCHAR 0459
ENCODING 1113
SWIDTH 300 0
DWIDTH 15 0
BBX 0 0 0 0
BITMAP
ENDCHAR
STARTCHAR 045A
ENCODING 1114
SWIDTH 300 0
DWIDTH 15 0
BBX 0 0 0 0
BITMAP
ENDCHAR
STARTCHAR 045B
ENCODING 1115
SWIDTH 300 0
DWIDTH 15 0
BBX 0 0 0 0
BITMAP
ENDCHAR
STARTCHAR 045C
ENCODING 1116
SWIDTH 300 0
DWIDTH 15 0
BBX 0 0 0 0
BITMAP
ENDCHAR
STARTCHAR 045E
ENCODING 1118
SWIDTH 300 0
DWIDTH 15 0
BBX 0 0 0 0
BITMAP
ENDCHAR
STARTCHAR 045F
ENCODING 1119
SWIDTH 300 0
DWIDTH 15 0
BBX 0 0 0 0
BITMAP
ENDCHAR
STARTCHAR 0470
ENCODING 1136
SWIDTH 300 0
DWIDTH 15 0
BBX 0 0 0 0
BITMAP
ENDCHAR
STARTCHAR 0471
ENCODING 1137
SWIDTH 300 0
DWIDTH 15 0
BBX 0 0 0 0
BITMAP
ENDCHAR
STARTCHAR 0472
ENCODING 1138
SWIDTH 300 0
DWIDTH 15 0
BBX 0 0 0 0
BITMAP
ENDCHAR
STARTCHAR 0473
ENCODING 1139
SWIDTH 300 0
DWIDTH 15 0
BBX 0 0 0 0
BITMAP
ENDCHAR
STARTCHAR 0490
ENCODING 1168
SWIDTH 300 0
DWIDTH 15 0
BBX 0 0 0 0
BITMAP
ENDCHAR
STARTCHAR 0491
ENCODING 1169
SWIDTH 300 0
DWIDTH 15 0
BBX 0 0 0 0
BITMAP
ENDCHAR
STARTCHAR 1E80
ENCODING 7808
SWIDTH 300 0
DWIDTH 15 0
BBX 0 0 0 0
BITMAP
ENDCHAR
STARTCHAR 1E81
ENCODING 7809
SWIDTH 300 0
DWIDTH 15 0
BBX 0 0 0 0
BITMAP
ENDCHAR
STARTCHAR 1E82
ENCODING 7810
SWIDTH 300 0
DWIDTH 15 0
BBX 0 0 0 0
BITMAP
ENDCHAR
STARTCHAR 1E83
ENCODING 7811
SWIDTH 300 0
DWIDTH 15 0
BBX 0 0 0 0
BITMAP
ENDCHAR
STARTCHAR 1E84
ENCODING 7812
SWIDTH 300 0
DWIDTH 15 0
BBX 0 0 0 0
BITMAP
ENDCHAR
STARTCHAR 1E85
ENCODING 7813
SWIDTH 300 0
DWIDTH 15 0
BBX 0 0 0 0
BITMAP
ENDCHAR
STARTCHAR 1EF2
ENCODING 7922
SWIDTH 300 0
DWIDTH 15 0
BBX 0 0 0 0
BITMAP
ENDCHAR
STARTCHAR 1EF3
ENCODING 7923
SWIDTH 300 0
DWIDTH 15 0
BBX 0 0 0 0
BITMAP
ENDCHAR
STARTCHAR 2010
ENCODING 8208
SWIDTH 340 0
DWIDTH 17 0
BBX 12 5 3 12
BITMAP
FFF0
FFF0
FFF0
FFF0
FFF0
ENDCHAR
STARTCHAR 2013
ENCODING 8211
SWIDTH 300 0
DWIDTH 15 0
BBX 0 0 0 0
BITMAP
ENDCHAR
STARTCHAR 2014
ENCODING 8212
SWIDTH 300 0
DWIDTH 15 0
BBX 0 0 0 0
BITMAP
ENDCHAR
STARTCHAR 2015
ENCODING 8213
SWIDTH 300 0
DWIDTH 15 0
BBX 0 0 0 0
BITMAP
ENDCHAR
STARTCHAR 2017
ENCODING 8215
SWIDTH 300 0
DWIDTH 15 0
BBX 0 0 0 0
BITMAP
ENDCHAR
STARTCHAR 2018
ENCODING 8216
SWIDTH 200 0
DWIDTH 10 0
BBX 7 9 1 20
BITMAP
70
F8
F8
F8
FC
7C
7C
7C
7E
ENDCHAR
STARTCHAR 2019
ENCODING 8217
SWIDTH 200 0
DWIDTH 10 0
BBX 6 9 2 20
BITMAP
38
7C
7C
7C
7C
FC
FC
F8
F8
ENDCHAR
STARTCHAR 201A
ENCODING 8218
SWIDTH 300 0
DWIDTH 15 0
BBX 0 0 0 0
BITMAP
ENDCHAR
STARTCHAR 201B
ENCODING 8219
SWIDTH 300 0
DWIDTH 15 0
BBX 0 0 0 0
BITMAP
ENDCHAR
STARTCHAR 201C
ENCODING 8220
SWIDTH 360 0
DWIDTH 18 0
BBX 15 9 1 20
BITMAP
7070
F8F8
F8F8
F8FC
FC7C
7C7C
7C7C
7C7E
7E3E
ENDCHAR
STARTCHAR 201D
ENCODING 8221
SWIDTH 360 0
DWIDTH 18 0
BBX 15 9 2 20
BITMAP
3838
7C7C
7C7E
7C7C
7C7C
FCFC
FCFC
F8F8
F8F8
ENDCHAR
STARTCHAR 201E
ENCODING 8222
SWIDTH 300 0
DWIDTH 15 0
BBX 0 0 0 0
BITMAP
ENDCHAR
STARTCHAR 2020
ENCODING 8224
SWIDTH 300 0
DWIDTH 15 0
BBX 0 0 0 0
BITMAP
ENDCHAR
STARTCHAR 2021
ENCODING 8225
SWIDTH 300 0
DWIDTH 15 0
BBX 0 0 0 0
BITMAP
ENDCHAR
STARTCHAR 2022
ENCODING 8226
SWIDTH 480 0
DWIDTH 24 0
BBX 20 19 2 10
BITMAP
006000
006000
007000
00F000
00F000
01F800
3FFFE0
FFFFF0
3FFFE0
1FFFC0
0FFF00
07FE00
07FE00
07FE00
07FF00
07DF00
0F0F00
0C0380
080080
ENDCHAR
STARTCHAR 2026
ENCODING 8230
SWIDTH 520 0
DWIDTH 26 0
BBX 23 6 1 0
BITMAP
78783C
FCFC7E
FCFC7E
FCFC7E
FCFC7E
78783C
ENDCHAR
STARTCHAR 2126
ENCODING 8486
SWIDTH 300 0
DWIDTH 15 0
BBX 0 0 0 0
BITMAP
ENDCHAR
STARTCHAR 2206
ENCODING 8710
SWIDTH 300 0
DWIDTH 15 0
BBX 0 0 0 0
BITMAP
ENDCHAR
STARTCHAR 2219
ENCODING 8729
SWIDTH 300 0
DWIDTH 15 0
BBX 0 0 0 0
BITMAP
ENDCHAR
ENDFONT
